<svg width="200" height="75" viewBox="0 0 200 75" fill="none" xmlns="http://www.w3.org/2000/svg">
<g clip-path="url(#clip0)">
<path d="M32.1677 2.82448C35.5302 2.82448 38.8927 4.66263 40.3946 8.36135C47.1868 24.8599 53.979 41.3809 60.7712 57.8794C62.3403 61.7126 61.354 66.0614 58.3726 68.8187C56.5569 70.4999 54.1807 71.3966 51.8046 71.3966C50.2802 71.3966 48.7559 71.0379 47.3437 70.2981C42.5914 67.8323 37.3683 66.5994 32.1677 66.5994C26.9671 66.5994 21.744 67.8323 16.9917 70.2981C15.5795 71.0379 14.0328 71.3966 12.5309 71.3966C10.1323 71.3966 7.77856 70.4999 5.96283 68.8187C2.98143 66.0614 1.97269 61.7126 3.56426 57.8794C10.334 41.3809 17.1487 24.8823 23.9409 8.36135C25.4428 4.68505 28.8052 2.82448 32.1677 2.82448ZM32.1677 0C27.3257 0 23.1787 2.77965 21.3405 7.28536L0.94153 56.8034C-1.07596 61.6678 0.179369 67.3392 4.03501 70.9034C6.36632 73.0554 9.37013 74.221 12.5084 74.221C14.5035 74.221 16.4986 73.7279 18.2695 72.8088C22.551 70.5896 27.3482 69.4239 32.1677 69.4239C36.9873 69.4239 41.7844 70.5896 46.0659 72.8088C47.8368 73.7279 49.8319 74.221 51.827 74.221C54.9653 74.221 57.9915 73.033 60.3004 70.9034C64.1561 67.3392 65.4114 61.6678 63.3939 56.8034L42.9949 7.28536C41.1567 2.77965 37.0097 0 32.1677 0Z" fill="#00AB4E"/>
<path d="M54.8308 57.0724C48.8904 42.6586 42.9501 28.2448 37.0097 13.8086C35.2164 9.4598 29.0967 9.4598 27.3034 13.8086C21.363 28.2224 15.4226 42.6362 9.50466 57.0724C8.51833 59.471 9.21324 61.9817 10.9169 63.5508C12.5981 65.12 15.1312 65.6356 17.4401 64.4699C26.6981 59.7848 37.6374 59.7848 46.9178 64.4699C49.2267 65.6356 51.7598 65.12 53.441 63.5508C55.1222 61.9817 55.8171 59.471 54.8308 57.0724ZM40.417 51.3114C39.9911 51.7597 39.341 51.9839 38.6461 51.7373C34.4542 50.213 29.8588 50.213 25.6669 51.7373C24.9945 51.9839 24.322 51.7597 23.9185 51.3338C23.4925 50.8855 23.3132 50.213 23.5822 49.5405C25.9359 43.8467 28.2897 38.1529 30.621 32.4591C31.1814 31.0917 33.1092 31.0917 33.6696 32.4591C36.0234 38.1529 38.3771 43.8467 40.7084 49.5405C41.0223 50.1906 40.8429 50.8631 40.417 51.3114Z" fill="#938884"/>
<path d="M118.583 34.3645C116.566 32.885 114.01 32.0331 110.065 32.0331H104.326C103.385 32.0331 102.6 32.7953 102.6 33.7592V55.1446C102.6 56.086 103.362 56.8706 104.326 56.8706H110.065C114.01 56.8706 116.588 56.0188 118.606 54.5393C121.654 52.2752 123.537 48.5765 123.537 44.4743C123.537 40.3272 121.632 36.6285 118.583 34.3645ZM116.992 51.3786C115.422 52.7236 113.383 53.4633 109.908 53.4633H108.16H107.935H107.599H106.187V51.9838V51.7597V51.5579V37.2786V37.0769V36.8751V35.3732H107.801H107.935H107.98H109.908C113.383 35.3732 115.445 36.1129 116.992 37.4579C118.875 39.1168 119.995 41.6498 119.995 44.4071C119.995 47.1643 118.852 49.7198 116.992 51.3786Z" fill="#938884"/>
<path d="M98.7222 54.6738L98.6325 54.4721L96.8392 50.1233L95.5167 46.9402L89.6884 32.8626L89.6211 32.7057C89.4642 32.3919 89.24 32.1453 88.9486 31.9659C88.702 31.809 88.3882 31.7194 88.0744 31.7194C87.7605 31.7194 87.4691 31.809 87.2001 31.9659C86.9087 32.1453 86.6846 32.3919 86.5276 32.7057L86.4604 32.8626L77.561 54.3376L77.3817 54.8083C77.3593 54.9428 77.3145 55.0773 77.3145 55.2118C77.3145 55.9068 77.7404 56.512 78.3456 56.781C78.5474 56.8707 78.7939 56.9379 79.0405 56.9379C79.2871 56.9379 79.5113 56.8931 79.7354 56.781C80.0941 56.6241 80.3855 56.3327 80.5648 55.974L80.6545 55.7274L82.0892 52.208V52.1856C82.5375 51.1545 83.5238 50.4371 84.7119 50.3923H84.9136H86.1017H91.1903H91.2127H91.4144C92.5801 50.4371 93.5888 51.1545 94.0372 52.1632C94.0372 52.1856 95.4718 55.6378 95.4718 55.6378L95.6287 56.0188C95.8081 56.3327 96.0771 56.6017 96.4357 56.7586C96.6375 56.8483 96.8841 56.9155 97.1306 56.9155C97.3772 56.9155 97.6014 56.8707 97.8256 56.7586C98.4308 56.4896 98.8567 55.8843 98.8567 55.1894C98.8119 55.0325 98.767 54.8532 98.7222 54.6738ZM84.1515 47.3212L86.438 41.762L86.4828 41.6723L86.5501 41.5154L88.0744 37.8391L89.6435 41.6275V41.6499C89.6435 41.6723 89.6659 41.7171 89.6659 41.7395L92.0197 47.3437C92.0197 47.3437 91.8852 47.0747 91.3023 47.0747H84.8464C84.286 47.0522 84.1515 47.3212 84.1515 47.3212Z" fill="#938884"/>
<path d="M146.312 54.6739L146.223 54.4721L144.429 50.1233L143.107 46.9402L137.279 32.8626L137.211 32.7057C137.054 32.3919 136.83 32.1453 136.539 31.9659C136.27 31.809 135.978 31.7194 135.665 31.7194C135.351 31.7194 135.037 31.809 134.79 31.9659C134.499 32.1453 134.275 32.3919 134.118 32.7057L134.051 32.8626L125.151 54.36L124.972 54.8308C124.949 54.9653 124.905 55.0998 124.905 55.2343C124.905 55.9292 125.331 56.5344 125.936 56.8034C126.138 56.8931 126.384 56.9603 126.631 56.9603C126.877 56.9603 127.101 56.9155 127.326 56.8034C127.684 56.6465 127.976 56.3551 128.155 55.9964L128.245 55.7498L129.679 52.2305V52.208C130.128 51.1769 131.114 50.4595 132.302 50.4147H132.504H133.692H138.78H138.803H139.005C140.17 50.4595 141.179 51.1769 141.627 52.1856C141.627 52.208 143.062 55.6602 143.062 55.6602L143.219 56.0413C143.398 56.3551 143.667 56.6241 144.026 56.781C144.228 56.8707 144.474 56.9379 144.721 56.9379C144.967 56.9379 145.192 56.8931 145.416 56.781C146.021 56.512 146.447 55.9068 146.447 55.2118C146.402 55.0325 146.38 54.8532 146.312 54.6739ZM131.742 47.3212L134.028 41.762L134.073 41.6723L134.14 41.5154L135.665 37.8391L137.234 41.6275V41.6499C137.234 41.6723 137.256 41.7171 137.256 41.7395L139.61 47.3437C139.61 47.3437 139.475 47.0747 138.893 47.0747H132.437C131.899 47.0522 131.742 47.3212 131.742 47.3212Z" fill="#938884"/>
<path d="M199.888 54.6739L199.798 54.4721L198.005 50.1233L196.682 46.9402L190.854 32.8626L190.787 32.7057C190.63 32.3919 190.406 32.1453 190.114 31.9659C189.868 31.809 189.554 31.7194 189.24 31.7194C188.926 31.7194 188.635 31.809 188.366 31.9659C188.074 32.1453 187.85 32.3919 187.693 32.7057L187.626 32.8626L178.727 54.36L178.547 54.8308C178.525 54.9653 178.503 55.0998 178.503 55.2343C178.503 55.9292 178.928 56.5344 179.534 56.8034C179.735 56.8931 179.982 56.9603 180.229 56.9603C180.475 56.9603 180.699 56.9155 180.923 56.8034C181.282 56.6465 181.574 56.3551 181.775 55.9964L181.865 55.7498L183.3 52.2305V52.208C183.748 51.1769 184.734 50.4595 185.922 50.4147H186.124H187.312H192.401H192.423H192.625C193.791 50.4595 194.799 51.1769 195.248 52.1856C195.248 52.208 196.682 55.6602 196.682 55.6602L196.839 56.0413C197.019 56.3551 197.288 56.6241 197.646 56.781C197.848 56.8707 198.095 56.9379 198.341 56.9379C198.588 56.9379 198.812 56.8931 199.036 56.781C199.641 56.512 200.067 55.9068 200.067 55.2118C200 55.0325 199.955 54.8532 199.888 54.6739ZM185.317 47.3212L187.604 41.762L187.648 41.6723L187.716 41.5154L189.24 37.8391L190.809 41.6275V41.6499C190.809 41.6723 190.832 41.7171 190.832 41.7395L193.185 47.3437C193.185 47.3437 193.051 47.0747 192.468 47.0747H186.012C185.474 47.0522 185.317 47.3212 185.317 47.3212Z" fill="#938884"/>
<path d="M174.58 33.3333V33.3109C174.58 33.2885 174.58 33.3109 174.58 33.3333C174.58 32.6384 174.176 32.078 173.571 31.8539L173.548 31.8314C173.392 31.7642 173.212 31.7418 173.01 31.7418C172.831 31.7418 172.674 31.7866 172.517 31.8314H172.495C172.203 31.9435 171.957 32.1229 171.778 32.3694L171.71 32.4815C171.665 32.5488 171.643 32.6384 171.598 32.7057C171.621 32.6384 171.643 32.5712 171.688 32.5039L162.52 46.9626L153.374 32.5039L153.284 32.3694C153.105 32.1229 152.858 31.9211 152.544 31.809C152.387 31.7418 152.208 31.7194 152.006 31.7194C151.827 31.7194 151.648 31.7642 151.468 31.809C150.863 32.0332 150.437 32.5936 150.437 33.2661V55.1446C150.437 55.8395 150.841 56.4448 151.423 56.7362C151.67 56.8483 151.939 56.9379 152.208 56.9379C152.477 56.9379 152.768 56.8707 152.993 56.7362C153.575 56.4448 153.979 55.8619 153.979 55.167V39.9462L161.018 50.9751L161.085 51.0872L161.242 51.3338H161.287C161.6 51.6252 162.004 51.827 162.475 51.827C162.945 51.827 163.349 51.6476 163.663 51.3338H163.708L163.865 51.1096L163.932 50.9975L170.971 39.9686V55.1894C170.971 55.8843 171.374 56.4672 171.957 56.7586C172.203 56.8707 172.472 56.9603 172.741 56.9603C173.033 56.9603 173.302 56.8931 173.526 56.7586C174.109 56.4672 174.512 55.8619 174.512 55.167V33.3333H174.58Z" fill="#938884"/>
</g>
<defs>
<clipPath id="clip0">
<rect width="200" height="74.2434" fill="white"/>
</clipPath>
</defs>
</svg>
