<svg width="580" height="300" viewBox="0 0 580 300" fill="none" xmlns="http://www.w3.org/2000/svg">
<g id="Czym sa aukcje on-line">
<path id="Vector 4" d="M433.5 57.5H460.5C479.554 57.5 495 72.9462 495 92V92C495 111.054 479.554 126.5 460.5 126.5H144.5C112.467 126.5 86.5 152.467 86.5 184.5V184.5C86.5 216.533 112.467 242.5 144.5 242.5H260C276.569 242.5 290 255.931 290 272.5V278.5" stroke="#EE7D00" stroke-width="9" stroke-dasharray="15 5"/>
<g id="Group 11">
<g id="XMLID_31_">
<path id="XMLID_35_" d="M433.394 24.2654V203.195H147.683V24.2654C147.683 17.5314 153.215 12 159.948 12H421.129C427.863 12 433.394 17.5314 433.394 24.2654Z" fill="#324A5E"/>
<path id="XMLID_34_" d="M421.128 24.2654H159.948V190.93H421.128V24.2654Z" fill="#E5E5E5"/>
<path id="XMLID_33_" d="M450.469 223.397C448.305 225.562 445.419 226.764 442.052 226.764H139.025C132.531 226.764 127 221.473 127 214.98C127 208.486 132.291 203.195 139.025 203.195H442.052C452.634 203.195 457.925 215.942 450.469 223.397Z" fill="#324A5E"/>
<path id="XMLID_32_" d="M453.836 213.777H127.241C127.722 207.524 133.013 202.955 139.025 202.955H262.16L266.248 208.246H315.069L319.158 202.955H442.052C448.305 203.195 453.355 207.765 453.836 213.777Z" fill="#E5E5E5"/>
</g>
</g>
<g id="Group">
<g id="Vector">
<mask id="path-6-outside-1" maskUnits="userSpaceOnUse" x="243.795" y="97.8999" width="56" height="56" fill="black">
<rect fill="white" x="243.795" y="97.8999" width="56" height="56"/>
<path d="M257.355 152.076C256.002 152.08 254.662 151.814 253.412 151.297C252.163 150.779 251.028 150.018 250.073 149.059L247.812 146.797C245.771 144.756 244.676 141.934 244.806 139.05C244.935 136.166 246.282 133.45 248.498 131.604L287.211 99.3418C287.577 99.0369 288.044 98.88 288.519 98.9019C288.995 98.9238 289.445 99.1229 289.782 99.46L297.411 107.089C297.748 107.425 297.947 107.876 297.969 108.351C297.991 108.827 297.834 109.294 297.529 109.66L265.27 148.373C264.304 149.533 263.094 150.467 261.726 151.107C260.358 151.747 258.866 152.078 257.355 152.076ZM288.321 103.385L250.943 134.534C250.247 135.107 249.68 135.822 249.279 136.629C248.878 137.437 248.653 138.321 248.616 139.222C248.532 141.06 249.204 142.796 250.508 144.1L252.77 146.362C255.364 148.956 259.995 148.739 262.341 145.927L293.486 108.554L288.321 103.385Z"/>
</mask>
<path d="M257.355 152.076C256.002 152.08 254.662 151.814 253.412 151.297C252.163 150.779 251.028 150.018 250.073 149.059L247.812 146.797C245.771 144.756 244.676 141.934 244.806 139.05C244.935 136.166 246.282 133.45 248.498 131.604L287.211 99.3418C287.577 99.0369 288.044 98.88 288.519 98.9019C288.995 98.9238 289.445 99.1229 289.782 99.46L297.411 107.089C297.748 107.425 297.947 107.876 297.969 108.351C297.991 108.827 297.834 109.294 297.529 109.66L265.27 148.373C264.304 149.533 263.094 150.467 261.726 151.107C260.358 151.747 258.866 152.078 257.355 152.076ZM288.321 103.385L250.943 134.534C250.247 135.107 249.68 135.822 249.279 136.629C248.878 137.437 248.653 138.321 248.616 139.222C248.532 141.06 249.204 142.796 250.508 144.1L252.77 146.362C255.364 148.956 259.995 148.739 262.341 145.927L293.486 108.554L288.321 103.385Z" fill="#EE7D00"/>
<path d="M257.355 152.076C256.002 152.08 254.662 151.814 253.412 151.297C252.163 150.779 251.028 150.018 250.073 149.059L247.812 146.797C245.771 144.756 244.676 141.934 244.806 139.05C244.935 136.166 246.282 133.45 248.498 131.604L287.211 99.3418C287.577 99.0369 288.044 98.88 288.519 98.9019C288.995 98.9238 289.445 99.1229 289.782 99.46L297.411 107.089C297.748 107.425 297.947 107.876 297.969 108.351C297.991 108.827 297.834 109.294 297.529 109.66L265.27 148.373C264.304 149.533 263.094 150.467 261.726 151.107C260.358 151.747 258.866 152.078 257.355 152.076ZM288.321 103.385L250.943 134.534C250.247 135.107 249.68 135.822 249.279 136.629C248.878 137.437 248.653 138.321 248.616 139.222C248.532 141.06 249.204 142.796 250.508 144.1L252.77 146.362C255.364 148.956 259.995 148.739 262.341 145.927L293.486 108.554L288.321 103.385Z" stroke="#EE7D00" stroke-width="2" mask="url(#path-6-outside-1)"/>
</g>
<g id="Vector_2">
<mask id="path-7-outside-2" maskUnits="userSpaceOnUse" x="277.898" y="71.2006" width="48" height="48" fill="black">
<rect fill="white" x="277.898" y="71.2006" width="48" height="48"/>
<path d="M303.694 117.972C303.188 117.972 302.702 117.771 302.343 117.415L279.457 94.528C279.099 94.1703 278.898 93.6853 278.898 93.1796C278.898 92.6738 279.099 92.1888 279.457 91.8312L298.529 72.759C298.886 72.4014 299.371 72.2006 299.877 72.2006C300.383 72.2006 300.868 72.4014 301.226 72.759L324.112 95.6456C324.47 96.0033 324.671 96.4883 324.671 96.994C324.671 97.4997 324.47 97.9847 324.112 98.3424L305.04 117.415C304.863 117.591 304.653 117.732 304.422 117.827C304.191 117.923 303.944 117.972 303.694 117.972ZM283.504 93.1777L303.694 113.367L320.069 96.9921L299.879 76.8023L283.504 93.1777Z"/>
</mask>
<path d="M303.694 117.972C303.188 117.972 302.702 117.771 302.343 117.415L279.457 94.528C279.099 94.1703 278.898 93.6853 278.898 93.1796C278.898 92.6738 279.099 92.1888 279.457 91.8312L298.529 72.759C298.886 72.4014 299.371 72.2006 299.877 72.2006C300.383 72.2006 300.868 72.4014 301.226 72.759L324.112 95.6456C324.47 96.0033 324.671 96.4883 324.671 96.994C324.671 97.4997 324.47 97.9847 324.112 98.3424L305.04 117.415C304.863 117.591 304.653 117.732 304.422 117.827C304.191 117.923 303.944 117.972 303.694 117.972ZM283.504 93.1777L303.694 113.367L320.069 96.9921L299.879 76.8023L283.504 93.1777Z" fill="#EE7D00"/>
<path d="M303.694 117.972C303.188 117.972 302.702 117.771 302.343 117.415L279.457 94.528C279.099 94.1703 278.898 93.6853 278.898 93.1796C278.898 92.6738 279.099 92.1888 279.457 91.8312L298.529 72.759C298.886 72.4014 299.371 72.2006 299.877 72.2006C300.383 72.2006 300.868 72.4014 301.226 72.759L324.112 95.6456C324.47 96.0033 324.671 96.4883 324.671 96.994C324.671 97.4997 324.47 97.9847 324.112 98.3424L305.04 117.415C304.863 117.591 304.653 117.732 304.422 117.827C304.191 117.923 303.944 117.972 303.694 117.972ZM283.504 93.1777L303.694 113.367L320.069 96.9921L299.879 76.8023L283.504 93.1777Z" stroke="#EE7D00" stroke-width="2" mask="url(#path-7-outside-2)"/>
</g>
<g id="Vector_3">
<mask id="path-8-outside-3" maskUnits="userSpaceOnUse" x="299.727" y="93.0998" width="38" height="38" fill="black">
<rect fill="white" x="299.727" y="93.0998" width="38" height="38"/>
<path d="M311.321 129.277C309.818 129.282 308.33 128.988 306.941 128.413C305.552 127.838 304.291 126.994 303.231 125.928C301.629 124.325 300.728 122.151 300.727 119.884C300.725 117.617 301.623 115.442 303.223 113.837L320.537 96.5229C323.768 93.2921 329.39 93.2921 332.621 96.5229C334.766 98.6701 335.972 101.581 335.973 104.616C335.974 107.651 334.772 110.562 332.629 112.711L319.412 125.928C318.352 126.994 317.091 127.838 315.702 128.413C314.313 128.988 312.824 129.282 311.321 129.277ZM326.579 97.8313C325.317 97.8313 324.126 98.3233 323.234 99.2159L305.92 116.53C305.028 117.422 304.536 118.612 304.536 119.875C304.536 121.137 305.028 122.328 305.92 123.22C308.815 126.115 313.835 126.108 316.715 123.228L329.932 110.011C332.907 107.036 332.907 102.199 329.932 99.2235C329.493 98.7812 328.971 98.4304 328.395 98.1914C327.82 97.9524 327.202 97.83 326.579 97.8313Z"/>
</mask>
<path d="M311.321 129.277C309.818 129.282 308.33 128.988 306.941 128.413C305.552 127.838 304.291 126.994 303.231 125.928C301.629 124.325 300.728 122.151 300.727 119.884C300.725 117.617 301.623 115.442 303.223 113.837L320.537 96.5229C323.768 93.2921 329.39 93.2921 332.621 96.5229C334.766 98.6701 335.972 101.581 335.973 104.616C335.974 107.651 334.772 110.562 332.629 112.711L319.412 125.928C318.352 126.994 317.091 127.838 315.702 128.413C314.313 128.988 312.824 129.282 311.321 129.277ZM326.579 97.8313C325.317 97.8313 324.126 98.3233 323.234 99.2159L305.92 116.53C305.028 117.422 304.536 118.612 304.536 119.875C304.536 121.137 305.028 122.328 305.92 123.22C308.815 126.115 313.835 126.108 316.715 123.228L329.932 110.011C332.907 107.036 332.907 102.199 329.932 99.2235C329.493 98.7812 328.971 98.4304 328.395 98.1914C327.82 97.9524 327.202 97.83 326.579 97.8313Z" fill="#EE7D00"/>
<path d="M311.321 129.277C309.818 129.282 308.33 128.988 306.941 128.413C305.552 127.838 304.291 126.994 303.231 125.928C301.629 124.325 300.728 122.151 300.727 119.884C300.725 117.617 301.623 115.442 303.223 113.837L320.537 96.5229C323.768 93.2921 329.39 93.2921 332.621 96.5229C334.766 98.6701 335.972 101.581 335.973 104.616C335.974 107.651 334.772 110.562 332.629 112.711L319.412 125.928C318.352 126.994 317.091 127.838 315.702 128.413C314.313 128.988 312.824 129.282 311.321 129.277ZM326.579 97.8313C325.317 97.8313 324.126 98.3233 323.234 99.2159L305.92 116.53C305.028 117.422 304.536 118.612 304.536 119.875C304.536 121.137 305.028 122.328 305.92 123.22C308.815 126.115 313.835 126.108 316.715 123.228L329.932 110.011C332.907 107.036 332.907 102.199 329.932 99.2235C329.493 98.7812 328.971 98.4304 328.395 98.1914C327.82 97.9524 327.202 97.83 326.579 97.8313Z" stroke="#EE7D00" stroke-width="2" mask="url(#path-8-outside-3)"/>
</g>
<g id="Vector_4">
<mask id="path-9-outside-4" maskUnits="userSpaceOnUse" x="266.598" y="60" width="38" height="38" fill="black">
<rect fill="white" x="266.598" y="60" width="38" height="38"/>
<path d="M276.992 96.1491C275.869 96.1521 274.757 95.9325 273.72 95.503C272.683 95.0735 271.742 94.4426 270.95 93.6468C268.805 91.4996 267.6 88.5891 267.598 85.5542C267.597 82.5192 268.799 79.6076 270.942 77.4583L284.159 64.2413C288.481 59.9196 296.018 59.9196 300.34 64.2413C303.678 67.579 303.678 72.9993 300.348 76.3331L283.034 93.6468C282.243 94.4429 281.301 95.074 280.264 95.5036C279.227 95.9331 278.115 96.1525 276.992 96.1491ZM292.25 64.7029C290.213 64.7029 288.294 65.4963 286.856 66.9343L273.639 80.1552C270.664 83.1304 270.664 87.9671 273.639 90.9424C274.539 91.8078 275.738 92.2919 276.987 92.2933C278.235 92.2947 279.436 91.8134 280.337 90.95L297.651 73.6363C298.544 72.7437 299.036 71.5536 299.036 70.291C299.036 69.0284 298.544 67.8383 297.651 66.9458C296.944 66.2325 296.103 65.6668 295.176 65.2818C294.248 64.8967 293.254 64.6999 292.25 64.7029Z"/>
</mask>
<path d="M276.992 96.1491C275.869 96.1521 274.757 95.9325 273.72 95.503C272.683 95.0735 271.742 94.4426 270.95 93.6468C268.805 91.4996 267.6 88.5891 267.598 85.5542C267.597 82.5192 268.799 79.6076 270.942 77.4583L284.159 64.2413C288.481 59.9196 296.018 59.9196 300.34 64.2413C303.678 67.579 303.678 72.9993 300.348 76.3331L283.034 93.6468C282.243 94.4429 281.301 95.074 280.264 95.5036C279.227 95.9331 278.115 96.1525 276.992 96.1491ZM292.25 64.7029C290.213 64.7029 288.294 65.4963 286.856 66.9343L273.639 80.1552C270.664 83.1304 270.664 87.9671 273.639 90.9424C274.539 91.8078 275.738 92.2919 276.987 92.2933C278.235 92.2947 279.436 91.8134 280.337 90.95L297.651 73.6363C298.544 72.7437 299.036 71.5536 299.036 70.291C299.036 69.0284 298.544 67.8383 297.651 66.9458C296.944 66.2325 296.103 65.6668 295.176 65.2818C294.248 64.8967 293.254 64.6999 292.25 64.7029Z" fill="#EE7D00"/>
<path d="M276.992 96.1491C275.869 96.1521 274.757 95.9325 273.72 95.503C272.683 95.0735 271.742 94.4426 270.95 93.6468C268.805 91.4996 267.6 88.5891 267.598 85.5542C267.597 82.5192 268.799 79.6076 270.942 77.4583L284.159 64.2413C288.481 59.9196 296.018 59.9196 300.34 64.2413C303.678 67.579 303.678 72.9993 300.348 76.3331L283.034 93.6468C282.243 94.4429 281.301 95.074 280.264 95.5036C279.227 95.9331 278.115 96.1525 276.992 96.1491ZM292.25 64.7029C290.213 64.7029 288.294 65.4963 286.856 66.9343L273.639 80.1552C270.664 83.1304 270.664 87.9671 273.639 90.9424C274.539 91.8078 275.738 92.2919 276.987 92.2933C278.235 92.2947 279.436 91.8134 280.337 90.95L297.651 73.6363C298.544 72.7437 299.036 71.5536 299.036 70.291C299.036 69.0284 298.544 67.8383 297.651 66.9458C296.944 66.2325 296.103 65.6668 295.176 65.2818C294.248 64.8967 293.254 64.6999 292.25 64.7029Z" stroke="#EE7D00" stroke-width="2" mask="url(#path-9-outside-4)"/>
</g>
<g id="Vector_5">
<mask id="path-10-outside-5" maskUnits="userSpaceOnUse" x="293.634" y="139.858" width="44" height="14" fill="black">
<rect fill="white" x="293.634" y="139.858" width="44" height="14"/>
<path d="M334.209 152.301H296.541C296.035 152.301 295.55 152.1 295.192 151.743C294.835 151.385 294.634 150.9 294.634 150.394C294.634 145.138 298.914 140.858 304.17 140.858H326.58C331.836 140.858 336.116 145.138 336.116 150.394C336.116 150.9 335.915 151.385 335.557 151.743C335.2 152.1 334.714 152.301 334.209 152.301ZM298.776 148.487H331.977C331.188 146.267 329.067 144.673 326.58 144.673H304.17C301.687 144.673 299.562 146.267 298.776 148.487Z"/>
</mask>
<path d="M334.209 152.301H296.541C296.035 152.301 295.55 152.1 295.192 151.743C294.835 151.385 294.634 150.9 294.634 150.394C294.634 145.138 298.914 140.858 304.17 140.858H326.58C331.836 140.858 336.116 145.138 336.116 150.394C336.116 150.9 335.915 151.385 335.557 151.743C335.2 152.1 334.714 152.301 334.209 152.301ZM298.776 148.487H331.977C331.188 146.267 329.067 144.673 326.58 144.673H304.17C301.687 144.673 299.562 146.267 298.776 148.487Z" fill="#EE7D00"/>
<path d="M334.209 152.301H296.541C296.035 152.301 295.55 152.1 295.192 151.743C294.835 151.385 294.634 150.9 294.634 150.394C294.634 145.138 298.914 140.858 304.17 140.858H326.58C331.836 140.858 336.116 145.138 336.116 150.394C336.116 150.9 335.915 151.385 335.557 151.743C335.2 152.1 334.714 152.301 334.209 152.301ZM298.776 148.487H331.977C331.188 146.267 329.067 144.673 326.58 144.673H304.17C301.687 144.673 299.562 146.267 298.776 148.487Z" stroke="#EE7D00" stroke-width="2" mask="url(#path-10-outside-5)"/>
</g>
</g>
<path id="Polygon 2" d="M291.299 286.75C290.722 287.75 289.278 287.75 288.701 286.75L276.577 265.75C275.999 264.75 276.721 263.5 277.876 263.5L302.124 263.5C303.279 263.5 304.001 264.75 303.423 265.75L291.299 286.75Z" fill="#EE7D00" stroke="#EE7D00" stroke-linecap="round" stroke-linejoin="round"/>
</g>
</svg>
