<svg width="580" height="300" viewBox="0 0 580 300" fill="none" xmlns="http://www.w3.org/2000/svg">
<g id="Dostosowane formularze alternatywa">
<g id="Group 29">
<path id="XMLID 67" d="M453 272C453 277.476 448.682 282 442.925 282H137.075C131.558 282 127 277.476 127 272C127 266.524 131.318 262 137.075 262H442.925C448.682 262 453 266.524 453 272Z" fill="#324A5E"/>
<path id="XMLID 65" d="M453 271C452.76 266.05 448.439 262 443.158 262H136.842C131.321 262 127 266.05 127 271H453Z" fill="#E5E5E5"/>
<path id="XMLID 63" d="M434 100.309V262H146V100.309C146 94.0528 151.048 89 157.299 89H422.701C428.952 89 434 94.0528 434 100.309Z" fill="#324A5E"/>
<path id="XMLID 61" d="M423 101H158V251H423V101Z" fill="#E5E5E5"/>
<path id="XMLID 59" d="M333 255L328.907 260.455C326.739 263.409 323.368 265 319.756 265H261.244C257.632 265 254.02 263.182 252.093 260.455L248 255H333Z" fill="#324A5E"/>
</g>
<g id="Group 28">
<g id="Group 24">
<g id="XMLID 110">
<path id="XMLID 111" d="M376 77.3238V250.676C368 250.676 371.657 250.676 366.229 250.676C366.229 250.676 220.2 250.676 214.771 250.676C209.343 250.676 212.5 250.676 205 250.676V40.9524C205 35.5238 209.343 31.181 214.771 31.181H329.676L376 77.3238Z" fill="#FAFAFA"/>
</g>
<g id="XMLID 108">
<path id="XMLID 109" d="M376 77.3238H339.628C334.2 77.3238 329.857 72.9809 329.857 67.5524V31L376 77.3238Z" fill="#EE7D00"/>
</g>
<g id="XMLID 43">
<g id="XMLID 106">
<path id="XMLID 107" d="M253.257 105.48C265.814 105.48 275.994 95.3002 275.994 82.7429C275.994 70.1855 265.814 60.0058 253.257 60.0058C240.699 60.0058 230.52 70.1855 230.52 82.7429C230.52 95.3002 240.699 105.48 253.257 105.48Z" fill="#324A5E"/>
</g>
<g id="XMLID 83">
<g id="XMLID 95">
<g id="XMLID 101">
<g id="XMLID 104">
<path id="XMLID 105" d="M256.081 62.2654H250.432L251.421 55.9103C251.421 55.769 251.562 55.6278 251.844 55.6278H254.81C254.951 55.6278 255.234 55.769 255.234 55.9103L256.081 62.2654Z" fill="#324A5E"/>
</g>
<g id="XMLID 102">
<path id="XMLID 103" d="M250.291 103.22H255.939L254.951 109.575C254.951 109.717 254.81 109.858 254.527 109.858H251.562C251.42 109.858 251.138 109.717 251.138 109.575L250.291 103.22Z" fill="#324A5E"/>
</g>
</g>
<g id="XMLID 96">
<g id="XMLID 99">
<path id="XMLID 100" d="M273.734 85.5673V79.9184L280.089 80.9069C280.23 80.9069 280.371 81.0482 280.371 81.3306V84.2963C280.371 84.4375 280.23 84.72 280.089 84.72L273.734 85.5673Z" fill="#324A5E"/>
</g>
<g id="XMLID 97">
<path id="XMLID 98" d="M232.638 79.9184V85.5673L226.282 84.5788C226.141 84.5788 226 84.4375 226 84.1551V81.1894C226 81.0482 226.141 80.7657 226.282 80.7657L232.638 79.9184Z" fill="#324A5E"/>
</g>
</g>
</g>
<g id="XMLID 84">
<g id="XMLID 90">
<g id="XMLID 93">
<path id="XMLID 94" d="M269.779 70.1739L265.825 66.2196L271.05 62.4066C271.192 62.2654 271.474 62.2654 271.615 62.4066L273.734 64.5249C273.875 64.6662 273.875 64.8074 273.734 65.0898L269.779 70.1739Z" fill="#324A5E"/>
</g>
<g id="XMLID 91">
<path id="XMLID 92" d="M236.592 95.3118L240.546 99.2661L235.462 103.079C235.321 103.22 235.038 103.22 234.897 103.079L232.779 100.961C232.638 100.82 232.638 100.678 232.779 100.396L236.592 95.3118Z" fill="#324A5E"/>
</g>
</g>
<g id="XMLID 85">
<g id="XMLID 88">
<path id="XMLID 89" d="M265.684 99.266L269.638 95.3118L273.451 100.537C273.593 100.678 273.593 100.961 273.451 101.102L271.333 103.22C271.192 103.362 271.051 103.362 270.768 103.22L265.684 99.266Z" fill="#324A5E"/>
</g>
<g id="XMLID 86">
<path id="XMLID 87" d="M240.687 66.2196L236.733 70.1739L232.92 64.9486C232.779 64.8074 232.779 64.5249 232.92 64.3837L235.038 62.2653C235.179 62.1241 235.321 62.1241 235.603 62.2653L240.687 66.2196Z" fill="#324A5E"/>
</g>
</g>
</g>
</g>
<g id="XMLID 60">
<g id="XMLID 72">
<g id="XMLID 78">
<g id="XMLID 81">
<path id="XMLID 82" d="M247.889 62.689L242.664 64.8074L241.11 58.5935C241.11 58.4523 241.11 58.1699 241.393 58.1699L244.217 57.0401C244.359 56.8988 244.641 57.0401 244.641 57.1813L247.889 62.689Z" fill="#324A5E"/>
</g>
<g id="XMLID 79">
<path id="XMLID 80" d="M258.48 102.797L263.706 100.678L265.259 106.892C265.259 107.033 265.259 107.316 264.977 107.316L262.152 108.446C262.011 108.587 261.729 108.446 261.729 108.304L258.48 102.797Z" fill="#324A5E"/>
</g>
</g>
<g id="XMLID 73">
<g id="XMLID 76">
<path id="XMLID 77" d="M273.31 77.5176L271.192 72.2923L277.406 70.7388C277.547 70.7388 277.829 70.7388 277.829 71.0212L278.959 73.8457C279.1 73.987 278.959 74.2694 278.818 74.2694L273.31 77.5176Z" fill="#324A5E"/>
</g>
<g id="XMLID 74">
<path id="XMLID 75" d="M233.061 87.9681L235.179 93.1934L228.965 94.7469C228.824 94.7469 228.542 94.7469 228.542 94.4645L227.412 91.64C227.271 91.4987 227.412 91.2163 227.553 91.2163L233.061 87.9681Z" fill="#324A5E"/>
</g>
</g>
</g>
<g id="XMLID 61_2">
<g id="XMLID 67_2">
<g id="XMLID 70">
<path id="XMLID 71" d="M263.706 64.8074L258.481 62.689L261.87 57.1813C262.012 57.0401 262.153 56.8988 262.294 57.0401L265.118 58.1699C265.26 58.3111 265.401 58.4523 265.401 58.5935L263.706 64.8074Z" fill="#324A5E"/>
</g>
<g id="XMLID 68">
<path id="XMLID 69" d="M242.664 100.678L247.889 102.797L244.5 108.304C244.359 108.446 244.217 108.587 244.076 108.446L241.252 107.316C241.11 107.175 240.969 107.033 240.969 106.892L242.664 100.678Z" fill="#324A5E"/>
</g>
</g>
<g id="XMLID 62">
<g id="XMLID 65_2">
<path id="XMLID 66" d="M271.05 93.1934L273.169 87.9681L278.676 91.3575C278.818 91.4987 278.959 91.64 278.818 91.7812L277.688 94.6057C277.547 94.7469 277.405 94.8881 277.264 94.8881L271.05 93.1934Z" fill="#324A5E"/>
</g>
<g id="XMLID 63_2">
<path id="XMLID 64" d="M235.32 72.2923L233.202 77.5176L227.694 74.1282C227.553 73.9869 227.412 73.8457 227.553 73.7045L228.683 70.88C228.824 70.7388 228.965 70.5976 229.107 70.5976L235.32 72.2923Z" fill="#324A5E"/>
</g>
</g>
</g>
</g>
<g id="XMLID 58">
<path id="XMLID 59_2" d="M253.256 100.255C262.927 100.255 270.768 92.4144 270.768 82.7429C270.768 73.0714 262.927 65.231 253.256 65.231C243.584 65.231 235.744 73.0714 235.744 82.7429C235.744 92.4144 243.584 100.255 253.256 100.255Z" fill="white"/>
</g>
<g id="XMLID 56">
<path id="XMLID 57" d="M253.256 95.8767C260.51 95.8767 266.39 89.9965 266.39 82.7429C266.39 75.4892 260.51 69.609 253.256 69.609C246.003 69.609 240.123 75.4892 240.123 82.7429C240.123 89.9965 246.003 95.8767 253.256 95.8767Z" fill="#324A5E"/>
</g>
<g id="XMLID 51">
<g id="XMLID 54">
<path id="XMLID 55" d="M255.516 60.0058H250.855V105.48H255.516V60.0058Z" fill="#324A5E"/>
</g>
<g id="XMLID 52">
<path id="XMLID 53" d="M275.918 85.0711V80.4107L230.444 80.4107V85.0711L275.918 85.0711Z" fill="#324A5E"/>
</g>
</g>
<g id="XMLID 46">
<g id="XMLID 49">
<path id="XMLID 50" d="M270.911 68.3109L267.616 65.0155L235.461 97.1703L238.756 100.466L270.911 68.3109Z" fill="#324A5E"/>
</g>
<g id="XMLID 47">
<path id="XMLID 48" d="M267.613 100.463L270.908 97.1677L238.753 65.0129L235.458 68.3083L267.613 100.463Z" fill="#324A5E"/>
</g>
</g>
<g id="XMLID 44">
<path id="XMLID 45" d="M253.115 90.369C257.327 90.369 260.741 86.9546 260.741 82.7429C260.741 78.5311 257.327 75.1168 253.115 75.1168C248.903 75.1168 245.489 78.5311 245.489 82.7429C245.489 86.9546 248.903 90.369 253.115 90.369Z" fill="white"/>
</g>
</g>
</g>
<g id="Group 25">
<path id="XMLID 15" d="M253.054 157H229.909C228.716 157 228 156.044 228 155.088V131.912C228 130.717 228.954 130 229.909 130H253.054C254.247 130 254.963 130.956 254.963 131.912V155.088C255.202 156.044 254.247 157 253.054 157ZM231.818 152.938H251.145V133.584H231.818V152.938Z" fill="#EE7D00"/>
<path id="XMLID 12" d="M258.662 132.071L244.578 147.173L244.335 147.417C243.607 148.148 242.635 148.148 241.907 147.66L241.664 147.417L238.265 142.789C237.779 142.301 238.022 141.327 238.508 141.083C238.993 140.84 239.479 140.84 239.964 141.083L242.878 143.276L256.719 130.365C257.205 129.878 257.933 129.878 258.419 130.365C259.147 130.853 259.147 131.34 258.662 132.071Z" fill="#EE7D00"/>
<g id="Group 22">
<path id="XMLID 10" d="M359 133.5C359 134.75 358.036 136 356.589 136H273.411C272.205 136 271 135 271 133.5C271 132.25 271.964 131 273.411 131H356.589C358.036 131.25 359 132.25 359 133.5Z" fill="#E5E5E5"/>
<path id="XMLID 8" d="M359 143C359 144 358.036 145 356.589 145H273.411C272.205 145 271 144.2 271 143C271 142 271.964 141 273.411 141H356.589C358.036 141 359 142 359 143Z" fill="#E5E5E5"/>
<path id="XMLID 6" d="M328 152.5C328 153.75 327.042 155 325.605 155H273.395C272.197 155 271 154 271 152.5C271 151.25 271.958 150 273.395 150H325.605C327.042 150 328 151 328 152.5Z" fill="#E5E5E5"/>
</g>
</g>
<g id="Group 26">
<path id="XMLID 15_2" d="M253.054 195H229.909C228.716 195 228 194.044 228 193.088V169.912C228 168.717 228.954 168 229.909 168H253.054C254.247 168 254.963 168.956 254.963 169.912V193.088C255.202 194.044 254.247 195 253.054 195ZM231.818 190.938H251.145V171.584H231.818V190.938Z" fill="#EE7D00"/>
<path id="XMLID 12_2" d="M258.662 170.071L244.578 185.173L244.335 185.417C243.607 186.148 242.635 186.148 241.907 185.66L241.664 185.417L238.265 180.789C237.779 180.301 238.022 179.327 238.508 179.083C238.993 178.84 239.479 178.84 239.964 179.083L242.878 181.276L256.719 168.365C257.205 167.878 257.933 167.878 258.419 168.365C259.147 168.853 259.147 169.34 258.662 170.071Z" fill="#EE7D00"/>
<g id="Group 22_2">
<path id="XMLID 10_2" d="M359 171.5C359 172.75 358.036 174 356.589 174H273.411C272.205 174 271 173 271 171.5C271 170.25 271.964 169 273.411 169H356.589C358.036 169.25 359 170.25 359 171.5Z" fill="#E5E5E5"/>
<path id="XMLID 8_2" d="M359 181C359 182 358.036 183 356.589 183H273.411C272.205 183 271 182.2 271 181C271 180 271.964 179 273.411 179H356.589C358.036 179 359 180 359 181Z" fill="#E5E5E5"/>
<path id="XMLID 6_2" d="M328 190.5C328 191.75 327.042 193 325.605 193H273.395C272.197 193 271 192 271 190.5C271 189.25 271.958 188 273.395 188H325.605C327.042 188 328 189 328 190.5Z" fill="#E5E5E5"/>
</g>
</g>
<g id="Group 27">
<path id="XMLID 15_3" d="M253.054 233H229.909C228.716 233 228 232.044 228 231.088V207.912C228 206.717 228.954 206 229.909 206H253.054C254.247 206 254.963 206.956 254.963 207.912V231.088C255.202 232.044 254.247 233 253.054 233ZM231.818 228.938H251.145V209.584H231.818V228.938Z" fill="#EE7D00"/>
<path id="XMLID 12_3" d="M258.662 208.071L244.578 223.173L244.335 223.417C243.607 224.148 242.635 224.148 241.907 223.66L241.664 223.417L238.265 218.789C237.779 218.301 238.022 217.327 238.508 217.083C238.993 216.84 239.479 216.84 239.964 217.083L242.878 219.276L256.719 206.365C257.205 205.878 257.933 205.878 258.419 206.365C259.147 206.853 259.147 207.34 258.662 208.071Z" fill="#EE7D00"/>
<g id="Group 22_3">
<path id="XMLID 10_3" d="M359 209.5C359 210.75 358.036 212 356.589 212H273.411C272.205 212 271 211 271 209.5C271 208.25 271.964 207 273.411 207H356.589C358.036 207.25 359 208.25 359 209.5Z" fill="#E5E5E5"/>
<path id="XMLID 8_3" d="M359 219C359 220 358.036 221 356.589 221H273.411C272.205 221 271 220.2 271 219C271 218 271.964 217 273.411 217H356.589C358.036 217 359 218 359 219Z" fill="#E5E5E5"/>
<path id="XMLID 6_3" d="M328 228.5C328 229.75 327.042 231 325.605 231H273.395C272.197 231 271 230 271 228.5C271 227.25 271.958 226 273.395 226H325.605C327.042 226 328 227 328 228.5Z" fill="#E5E5E5"/>
</g>
</g>
</g>
</g>
</svg>
