<svg width="30" height="30" viewBox="0 0 30 30" fill="none" xmlns="http://www.w3.org/2000/svg">
<g clip-path="url(#clip0)">
<path d="M29.5 3C29.2 3 29 3.2 29 3.5C29 11.8 23.2 18 15.5 18H1.7L8.8 10.9C9 10.7 9 10.4 8.8 10.2C8.6 10 8.3 10 8.1 10.2L0.1 18.2C0.1 18.2 0 18.3 0 18.4V18.7C0 18.8 0.1 18.8 0.1 18.9L8.1 26.9C8.2 27 8.4 27 8.5 27C8.6 27 8.8 27 8.9 26.9C9.1 26.7 9.1 26.4 8.9 26.2L1.7 19H15.5C23.8 19 30 12.3 30 3.5C30 3.2 29.8 3 29.5 3Z" fill="#006295"/>
</g>
<defs>
<clipPath id="clip0">
<rect width="30" height="30" fill="white"/>
</clipPath>
</defs>
</svg>
