<svg width="30" height="30" viewBox="0 0 30 30" fill="none" xmlns="http://www.w3.org/2000/svg">
<g clip-path="url(#clip0)">
<path d="M0.5 3C0.8 3 1 3.2 1 3.5C1 11.8 6.8 18 14.5 18H28.3L21.2 10.9C21 10.7 21 10.4 21.2 10.2C21.4 10 21.7 10 21.9 10.2L29.9 18.2C29.9 18.2 30 18.3 30 18.4V18.7C30 18.8 29.9 18.8 29.9 18.9L21.9 26.9C21.8 27 21.6 27 21.5 27C21.4 27 21.2 27 21.1 26.9C20.9 26.7 20.9 26.4 21.1 26.2L28.3 19H14.5C6.2 19 0 12.3 0 3.5C0 3.2 0.2 3 0.5 3Z" fill="#EE7D00"/>
</g>
<defs>
<clipPath id="clip0">
<rect width="30" height="30" fill="white" transform="matrix(-1 0 0 1 30 0)"/>
</clipPath>
</defs>
</svg>
