<svg xmlns="http://www.w3.org/2000/svg" xmlns:xlink="http://www.w3.org/1999/xlink" width="109.88" height="75.17" viewBox="0 0 109.88 75.17"><defs><clipPath id="clip-path"><path d="M17.41,21.22c2.93-.47,6.36-1,10.36-1.73,5.17-.89,11.44,1.75,17.48,4.4,5.75,2.51,11.3,5,15.51,4.5,8.62-1.08,20.8-5.12,29.72-5.39a26.59,26.59,0,0,1,3.91.19C85.44,13.4,71.11,7.05,54.94,7.05c-15.06,0-28.53,5.5-37.53,14.17" fill="none"/></clipPath><radialGradient id="Gradient_bez_nazwy_2" cx="-111.68" cy="-30.94" r="0.31" gradientTransform="matrix(146.79, 0, 0, -146.79, 16449.14, -4514.55)" gradientUnits="userSpaceOnUse"><stop offset="0" stop-color="#dff1fc"/><stop offset="0.31" stop-color="#ddf0fc"/><stop offset="0.42" stop-color="#d6edfb"/><stop offset="0.5" stop-color="#cbe8fa"/><stop offset="0.51" stop-color="#c8e7fa"/><stop offset="1" stop-color="#81cff4"/></radialGradient></defs><title>Hochland_logo</title><g id="Warstwa_2" data-name="Warstwa 2"><g id="Warstwa_1-2" data-name="Warstwa 1"><path d="M54.94,0C28.79,0,7.31,17.35,4.88,39.52a14,14,0,0,1,7.49-2h.72c1.33,0,2.45,0,3.72,0h.25c1.62,0,4.07.06,8.18.06h2.68a105.39,105.39,0,0,0,19.8-1.86c.91-.19,3.2-.73,4.53-1.15l2.57-.82.11,0,.11,0,2.57.82c1.33.42,3.62,1,4.53,1.15A105.39,105.39,0,0,0,82,37.65h2.68c4.11,0,6.56,0,8.18-.06h.25c1.27,0,2.4,0,3.72,0h.72a14,14,0,0,1,7.49,2C102.57,17.35,81.08,0,54.94,0" fill="#26358b"/><path d="M12.37,37.56h.72c1.33,0,2.45,0,3.72,0h.25c1.62,0,4.07.06,8.18.06h2.68a105.4,105.4,0,0,0,19.8-1.86c.91-.19,3.2-.73,4.53-1.15l2.57-.82.11,0,.11,0,2.57.82c1.33.42,3.62,1,4.53,1.15A105.39,105.39,0,0,0,82,37.65h2.68c4.11,0,6.56,0,8.18-.06h.25c1.27,0,2.4,0,3.72,0h.72a14.47,14.47,0,0,1,6.68,1.51c-1.88-8-6.64-15.33-13.87-21.19C80.86,10.2,68.3,6,54.94,6S29,10.2,19.56,17.88c-7.22,5.86-12,13.2-13.87,21.19a14.46,14.46,0,0,1,6.68-1.51" fill="#fff"/><path d="M54.94,7.05C31.38,7.05,11.69,20.53,7,38.5a15.22,15.22,0,0,1,5.42-.94h.72c1.33,0,2.45,0,3.72,0h.25c1.62,0,4.07.06,8.18.06h2.68a105.39,105.39,0,0,0,19.8-1.86c.91-.19,3.2-.73,4.53-1.15l2.57-.82.11,0,.11,0,2.57.82c1.33.42,3.62,1,4.53,1.15A105.39,105.39,0,0,0,82,37.65h2.68c4.11,0,6.56,0,8.18-.06h.25c1.27,0,2.4,0,3.72,0h.72a15.21,15.21,0,0,1,5.42.94c-4.74-18-24.42-31.45-48-31.45" fill="#fff"/><g clip-path="url(#clip-path)"><rect x="17.41" y="7.05" width="76.98" height="21.86" fill="url(#Gradient_bez_nazwy_2)"/></g><path d="M60.81,32.7c4.36,0,6.21-2,15.16-1.89,7.86.1,20.36,3.49,26.2,5.2a35,35,0,0,0-2.11-4.84c-6.4-1-17.15-2.5-24.16-2.59C66.94,28.47,64.66,31,60.3,31S48.38,27.15,39.74,29C33.27,30.3,19,31,9.72,31.39a34.62,34.62,0,0,0-2.38,5.77c8.93-2,24.91-5.44,32.25-6.49,8.75-1.25,16.86,2.08,21.22,2" fill="#ffec00"/><path d="M12.37,37.56h.72c1.33,0,2.45,0,3.72,0h.25c1.62,0,4.07.06,8.18.06h2.68a105.4,105.4,0,0,0,19.8-1.86c.91-.19,3.2-.73,4.53-1.15l2.57-.82.11,0,.11,0,2.57.82c1.33.42,3.62,1,4.53,1.15A105.39,105.39,0,0,0,82,37.65h2.68c4.11,0,6.56,0,8.18-.06h.25c1.27,0,2.4,0,3.72,0h.72a15.21,15.21,0,0,1,5.42.94q-.33-1.26-.76-2.48c-5.84-1.71-18.34-5.1-26.2-5.2C67,30.7,65.18,32.65,60.81,32.7s-12.47-3.28-21.22-2c-7.34,1-23.32,4.51-32.25,6.49C7.2,37.6,7.07,38,7,38.5a15.22,15.22,0,0,1,5.42-.94" fill="#76b72a"/><path d="M67.95,19.72a7,7,0,0,0-3.53,0h0a43.56,43.56,0,0,0-6,2.44,4.85,4.85,0,0,1-1.44.38,3.09,3.09,0,0,1-1.14-.17h0a9.27,9.27,0,0,1-2.08-1.16c-1.24-.32-3.43-1.68-4.4.62A22.77,22.77,0,0,1,47.89,25l-2.68-1.17c5.77,2.52,11.33,5,15.55,4.52,4.7-.59,10.47-2.06,16.19-3.32-2.54-1.77-6.8-4.73-9-5.35" fill="#fff"/><path d="M44,23.33h0" fill="#fff"/><path d="M45.21,23.87,44,23.33l1.24.54" fill="#04baee"/><path d="M49.31,21.84c1-2.3,3.16-.94,4.4-.62A5.33,5.33,0,0,0,51,20.08c-1.09,0-5.1,1.44-8.36,2.69l1.3.55h0l1.24.54L47.89,25a22.84,22.84,0,0,0,1.43-3.19" fill="#04baee"/><path d="M58.37,22.18l.07,0,0,0c-.49.22-.11,1.59.11,2.61a5.43,5.43,0,0,1,.12.67A5.58,5.58,0,0,1,61.07,23c1.78-1,2.71-1.59,3-2.36l.3-.8.06-.15a44,44,0,0,0-6,2.44" fill="#91d4f5"/><path d="M52.38,26.86l.61.22.15.05.51.17.12,0,1.26.38.07,0,.59.16h0q.64.16,1.25.28h0l.61.11a15.86,15.86,0,0,1,1-2.85c-.08-.93-.83-3-.22-3.28l0,0a5,5,0,0,1-1.5.4,3.09,3.09,0,0,1-1.14-.17,13.07,13.07,0,0,1-.93,2.23,6.4,6.4,0,0,1-2.49,2.24h0" fill="#eaf6fd"/><path d="M60.3,31c4.36,0,6.65-2.57,15.59-2.45,7,.09,17.76,1.59,24.16,2.59a38.73,38.73,0,0,0-5.66-8A26.55,26.55,0,0,0,90.48,23c-8.92.27-21.1,4.31-29.72,5.39s-22.91-10.63-33-8.9c-4,.69-7.43,1.26-10.36,1.73A39.47,39.47,0,0,0,9.72,31.39C19,31,33.27,30.3,39.74,29c8.64-1.8,16.19,2.14,20.56,2.09" fill="#006c3b"/><path d="M109.88,48.34a10,10,0,0,0-3.63-7.92,13.33,13.33,0,0,0-8.74-2.86h-.72c-1.33,0-2.45,0-3.72,0h-.25c-1.62,0-4.07.06-8.18.06H82a105.39,105.39,0,0,1-19.8-1.86c-.91-.19-3.2-.73-4.53-1.15L55,33.82l-.11,0-.11,0-2.57.82c-1.33.42-3.62,1-4.53,1.15a105.39,105.39,0,0,1-19.8,1.86H25.24c-4.11,0-6.56,0-8.18-.06h-.25c-1.27,0-2.4,0-3.72,0h-.72a13.33,13.33,0,0,0-8.74,2.86A10,10,0,0,0,0,48.34L0,53l0,7.6a10,10,0,0,0,3.63,7.92,13.33,13.33,0,0,0,8.74,2.86h.72c1.33,0,2.45,0,3.72,0h.25c1.62,0,4.07-.06,8.18-.06h2.68a105.36,105.36,0,0,1,19.8,1.86c.91.19,3.2.73,4.53,1.15l2.57.82.11,0,.11,0,2.57-.82c1.33-.42,3.62-1,4.53-1.15A105.36,105.36,0,0,1,82,71.32h2.68c4.11,0,6.56,0,8.18.06h.25c1.27,0,2.4,0,3.72,0h.72a13.33,13.33,0,0,0,8.74-2.86,10,10,0,0,0,3.63-7.92l0-7.6Z" fill="#e32213"/><path d="M53.66,69.9c-1.57-.5-4-1.08-5-1.28a110.27,110.27,0,0,0-20.72-2h-2.7c-4.13,0-6.59,0-8.23.06h-.26c-1.15,0-2.32,0-3.67,0h-.71A8.77,8.77,0,0,1,6.6,65a5.38,5.38,0,0,1-2-4.31l0-7.67,0-4.7A5.38,5.38,0,0,1,6.6,44a8.78,8.78,0,0,1,5.78-1.78h.71c1.33,0,2.51,0,3.65,0H17c1.64,0,4.11.06,8.24.06h2.7a110.25,110.25,0,0,0,20.71-2c1-.2,3.44-.78,5-1.28l1.28-.38,1.11.37c1.59.49,4.08,1.06,5,1.24a110.74,110.74,0,0,0,20.41,1.82h.38c5.68,0,8.58-.08,10.9-.12h.07c1.52,0,2.84-.06,4.58-.06h0c3.56,0,7.73,1.58,7.77,6l0,5.27v.89l0,6.87c0,4.45-4.21,6-7.77,6h-.06c-1.72,0-3,0-4.56-.06h-.07c-2.32,0-5.21-.11-10.91-.12h-.37a110.73,110.73,0,0,0-20.4,1.82c-.93.18-3.42.75-5,1.24l-1.11.37Z" fill="#fff"/><polygon points="9.17 46.08 13.38 46.08 13.38 51.5 16.5 51.5 16.5 46.08 20.7 46.08 20.7 61.8 16.5 61.8 16.5 55.7 13.38 55.7 13.38 61.8 9.17 61.8 9.17 46.08" fill="#26358b"/><polyline points="59.11 46.08 63.12 46.08 63.12 61.8 58.93 61.8 58.93 46.08" fill="#26358b"/><path d="M27.93,58.46c.9,0,2.28-.52,2.26-2.73S28.8,53,27.9,53s-2.28.52-2.26,2.74,1.4,2.73,2.29,2.72M22,55.78c0-4.83,3.57-6.24,5.9-6.26s5.9,1.38,5.9,6.21-3.53,6.39-5.85,6.4S22,60.6,22,55.78" fill="#26358b"/><path d="M75,53.29c0-3.14-2.5-3.8-4.66-3.79a6.43,6.43,0,0,0-4.52,1.33l-.26,3c1.58-.82,2.57-1.42,4.1-1.42.68,0,1.42.08,1.45.92.05,1.7-6.47.77-6.44,5.3,0,2.52,1.5,3.52,4,3.5a3.66,3.66,0,0,0,2.64-1.26v.93H75ZM70.8,59a2,2,0,0,1-1.19.36,1.14,1.14,0,0,1-1.18-1c0-1,1-1.28,1.45-1.44.93-.32,1.78-.4,1.76-.68a5.8,5.8,0,0,1,0,1.14A2,2,0,0,1,70.8,59" fill="#26358b"/><path d="M95,58.61c.8,0,2-.55,2-2.87s-1.25-2.85-2-2.85-2.14.55-2.13,2.87,1.37,2.85,2.16,2.85M97,60.85a3.93,3.93,0,0,1-3.15,1.28c-3.21,0-4.56-3.44-4.57-6.74,0-2.57,1.24-5.88,4.68-5.9,1.28,0,2.59.33,2.93,1h0v-4.4h4.18V61.8H97Z" fill="#26358b"/><path d="M76.71,49.86h4.21V51h0c.78-1.23,1.83-1.52,3.5-1.53a3.67,3.67,0,0,1,3.83,4V61.8H84l0-6.57c0-1.51-.39-2-1.54-2-1,0-1.62.53-1.6,2V61.8H76.71V49.86" fill="#26358b"/><path d="M53,61.8V55.34c0-1.51-.4-2-1.54-2-1,0-1.57.55-1.56,2V61.8H45.68V46.08h4.15v5h0c.78-1.23,1.81-1.53,3.48-1.53a3.65,3.65,0,0,1,3.8,4V61.8H53" fill="#26358b"/><path d="M44,58.22a6.94,6.94,0,0,1-2.84.54c-1.55,0-2.19-1.19-2.2-2.65a2.45,2.45,0,0,1,2.28-2.7A4.85,4.85,0,0,1,44,54V50.19a6.84,6.84,0,0,0-3.5-.67c-3.86,0-5.72,2.59-5.7,6.34,0,3.31,1.34,6.28,5.37,6.27A16,16,0,0,0,44,61.71Z" fill="#26358b"/></g></g></svg>