<svg width="200" height="200" viewBox="0 0 200 200" fill="none" xmlns="http://www.w3.org/2000/svg">
<g id="Komunikacja - orange">
<g id="Group 7">
<path id="Vector 3" d="M159.875 124C155.526 114.114 157.685 107.335 159.309 105.181H174C179.523 105.181 184 100.704 184 95.1807V28C184 22.4772 179.523 18 174 18H77C71.4771 18 67 22.4795 67 28.0023V61.9872V77H122.692C128.215 77 132.692 81.4772 132.692 87V105.181H137.562C140.054 113.57 151.38 123.32 159.875 124Z" stroke="#EE7D00" stroke-width="8" stroke-miterlimit="1.97146" stroke-linejoin="round"/>
<g id="Group 2">
<circle id="Ellipse 4" r="7.80644" transform="matrix(-1 0 0 1 149.728 59.4509)" fill="#EE7D00"/>
<circle id="Ellipse 5" r="7.80644" transform="matrix(-1 0 0 1 125.064 59.4509)" fill="#EE7D00"/>
<circle id="Ellipse 6" r="7.80644" transform="matrix(-1 0 0 1 100.4 59.4509)" fill="#EE7D00"/>
</g>
<path id="Vector 3_2" d="M40.1249 182C44.4742 172.207 42.3146 165.492 40.6912 163.358H26C20.4772 163.358 16 158.881 16 153.358V120.179V87C16 81.4772 20.4772 77 26 77H122C127.523 77 132 81.4771 132 87V153.358C132 158.881 127.523 163.358 122 163.358H62.4376C59.9458 171.668 48.6196 181.326 40.1249 182Z" stroke="#EE7D00" stroke-width="8"/>
<g id="Group 2_2">
<circle id="Ellipse 4_2" cx="50.5066" cy="119.209" r="7.80644" fill="#EE7D00"/>
<circle id="Ellipse 5_2" cx="75.1704" cy="119.209" r="7.80644" fill="#EE7D00"/>
<circle id="Ellipse 6_2" cx="99.8343" cy="119.209" r="7.80644" fill="#EE7D00"/>
</g>
</g>
</g>
</svg>
