<svg width="580" height="300" viewBox="0 0 580 300" fill="none" xmlns="http://www.w3.org/2000/svg">
<g id="Komunikacja z zamknieta grupa przewoznikow">
<g id="XMLID_128_">
<g id="XMLID_129_">
<path id="XMLID_130_" d="M319.338 185.079H311.36V147.248C311.36 141.329 309.044 135.667 304.926 131.549C300.809 127.432 295.147 125.115 289.228 125.115C277.132 125.115 267.096 135.152 267.096 147.248V185.079H259.118V147.248C259.118 130.777 272.5 117.138 288.971 117.138C296.949 117.138 304.669 120.226 310.074 125.888C315.735 131.549 318.824 139.013 318.824 146.99V185.079H319.338Z" fill="#EE7D00"/>
</g>
</g>
<g id="XMLID_125_">
<path id="XMLID_126_" d="M332.978 197.689C332.978 221.623 313.419 241.182 289.485 241.182C265.551 241.182 245.992 221.623 245.992 197.689C245.992 173.755 265.551 154.196 289.485 154.196C313.419 154.196 332.978 173.498 332.978 197.689Z" fill="#FFA746"/>
</g>
<g id="XMLID_120_">
<path id="XMLID_121_" d="M289.485 160.373C268.897 160.373 252.426 177.101 252.426 197.432C252.426 218.02 269.154 234.49 289.485 234.49C310.073 234.49 326.544 217.762 326.544 197.432C326.801 177.101 310.073 160.373 289.485 160.373ZM289.485 229.343C271.728 229.343 257.573 214.932 257.573 197.432C257.573 179.674 271.728 165.52 289.485 165.52C307.242 165.52 321.397 179.674 321.397 197.432C321.397 215.189 307.242 229.343 289.485 229.343Z" fill="#EE7D00"/>
</g>
<path id="XMLID_118_" d="M293.612 194.75L296 211H283L285.388 194.75C284.061 193.75 283 192 283 190C283 186.75 285.918 184 289.367 184C292.816 184 295.735 186.75 295.735 190C295.735 192 294.939 193.75 293.612 194.75Z" fill="#EE7D00"/>
<path id="XMLID_113_" d="M164.5 167C164.5 236.206 220.794 292.5 290 292.5C359.206 292.5 415.5 236.206 415.5 167C415.5 97.7938 359.206 41.5 290 41.5C220.794 41.5 164.5 97.7938 164.5 167ZM169.358 167C169.358 100.404 223.66 46.358 290 46.358C356.34 46.358 410.642 100.404 410.642 167C410.642 233.596 356.34 287.642 290 287.642C223.404 287.642 169.358 233.596 169.358 167Z" fill="#324A5E" stroke="#324A5E"/>
<g id="Group 13">
<g id="XMLID_75_">
<path id="XMLID_76_" d="M231.079 120.382V190.64H109V120.382C109 117.567 111.329 115.238 114.143 115.238H226.033C228.75 115.238 231.079 117.567 231.079 120.382Z" fill="#324A5E"/>
</g>
<g id="XMLID_73_">
<path id="XMLID_74_" d="M225.982 185.447V120.331L114.092 120.331L114.092 185.447H225.982Z" fill="#E5E5E5"/>
</g>
<g id="XMLID_71_">
<path id="XMLID_72_" d="M231.079 190.64V197.822C231.079 200.636 228.75 202.965 225.936 202.965H114.143C111.329 202.965 109 200.636 109 197.822V190.64H231.079Z" fill="#E5E5E5"/>
</g>
<g id="XMLID_69_">
<path id="XMLID_70_" d="M188.187 216.648H151.893L157.424 202.965H182.655L188.187 216.648Z" fill="#E5E5E5"/>
</g>
<g id="XMLID_67_" opacity="0.5">
<path id="XMLID_68_" opacity="0.5" d="M154.61 202.965L185.469 216.648L179.841 202.965H154.61Z" fill="#ADB3BA"/>
</g>
<g id="XMLID_65_">
<path id="XMLID_66_" d="M198.667 219.559C198.667 221.306 197.212 222.762 195.465 222.762H144.615C142.868 222.762 141.412 221.306 141.412 219.559C141.412 217.812 142.868 216.357 144.615 216.357H195.465C197.212 216.357 198.667 217.812 198.667 219.559Z" fill="#324A5E"/>
</g>
<g id="XMLID_45_">
<path id="XMLID_46_" d="M191.725 153.151C191.725 141.366 182.106 131.506 170.081 131.506C158.296 131.506 148.677 141.126 148.677 153.151C148.677 164.935 158.296 174.555 170.081 174.555C182.106 174.555 191.725 164.935 191.725 153.151ZM171.283 163.492C173.207 163.492 175.131 163.973 176.815 164.454C175.372 169.023 173.448 171.909 171.283 172.631V163.492ZM171.283 161.808V154.112H178.258C178.258 157.479 177.777 160.365 177.296 163.011C175.372 162.289 173.207 161.808 171.283 161.808ZM171.283 152.189V144.493C173.448 144.493 175.372 144.012 177.296 143.29C178.017 145.936 178.258 148.822 178.258 152.189H171.283ZM171.283 142.569V133.43C173.448 134.151 175.612 137.037 176.815 141.607C174.891 142.328 173.207 142.569 171.283 142.569ZM174.65 133.911C177.777 134.632 180.663 136.075 183.068 137.999C181.625 139.202 180.182 140.164 178.498 140.885C177.536 137.999 176.093 135.594 174.65 133.911ZM169.359 133.43V142.569C167.435 142.569 165.511 142.088 163.828 141.607C165.271 137.037 167.195 134.151 169.359 133.43ZM162.144 140.885C160.461 140.164 159.018 139.202 157.575 137.999C159.98 136.075 162.866 134.632 165.992 133.911C164.309 135.594 163.106 137.999 162.144 140.885ZM169.359 144.493V152.189H162.385C162.385 148.822 162.866 145.936 163.347 143.29C165.271 144.012 167.435 144.252 169.359 144.493ZM169.359 154.112V161.808C167.195 161.808 165.271 162.289 163.347 163.011C162.625 160.365 162.385 157.479 162.385 154.112H169.359ZM169.359 163.492V172.631C167.195 171.909 165.03 169.023 163.828 164.454C165.511 163.973 167.435 163.732 169.359 163.492ZM165.992 172.39C162.866 171.669 159.98 170.226 157.575 168.302C159.018 167.099 160.461 166.137 162.144 165.416C163.106 168.302 164.309 170.707 165.992 172.39ZM178.498 165.416C180.182 166.137 181.625 167.099 183.068 168.302C180.663 170.226 177.777 171.669 174.65 172.39C176.093 170.707 177.536 168.302 178.498 165.416ZM178.979 163.492C179.701 160.606 180.182 157.479 180.182 153.872H190.282C190.042 158.922 187.877 163.492 184.511 166.859C182.587 165.656 180.903 164.454 178.979 163.492ZM190.042 152.189H179.941C179.941 148.822 179.46 145.455 178.739 142.569C180.663 141.607 182.587 140.645 184.27 139.202C187.637 142.569 189.801 147.138 190.042 152.189ZM156.372 139.202C158.056 140.645 159.98 141.847 161.904 142.569C161.182 145.455 160.701 148.581 160.701 152.189H150.6C150.841 147.138 153.005 142.569 156.372 139.202ZM150.6 154.112H160.461C160.461 157.479 160.942 160.846 161.663 163.732C159.739 164.694 157.815 165.656 156.132 167.099C153.005 163.732 150.841 159.163 150.6 154.112Z" fill="#EE7D00"/>
</g>
</g>
<g id="Group 14">
<g id="XMLID_75__2">
<path id="XMLID_76__2" d="M471.079 120.382V190.64H349V120.382C349 117.567 351.329 115.238 354.143 115.238H466.033C468.75 115.238 471.079 117.567 471.079 120.382Z" fill="#324A5E"/>
</g>
<g id="XMLID_73__2">
<path id="XMLID_74__2" d="M465.982 185.447V120.331L354.092 120.331V185.447H465.982Z" fill="#E5E5E5"/>
</g>
<g id="XMLID_71__2">
<path id="XMLID_72__2" d="M471.079 190.64V197.822C471.079 200.636 468.75 202.965 465.936 202.965H354.143C351.329 202.965 349 200.636 349 197.822V190.64H471.079Z" fill="#E5E5E5"/>
</g>
<g id="XMLID_69__2">
<path id="XMLID_70__2" d="M428.187 216.648H391.893L397.424 202.965H422.655L428.187 216.648Z" fill="#E5E5E5"/>
</g>
<g id="XMLID_67__2" opacity="0.5">
<path id="XMLID_68__2" opacity="0.5" d="M394.61 202.965L425.469 216.648L419.841 202.965H394.61Z" fill="#ADB3BA"/>
</g>
<g id="XMLID_65__2">
<path id="XMLID_66__2" d="M438.667 219.559C438.667 221.306 437.212 222.762 435.465 222.762H384.615C382.868 222.762 381.412 221.306 381.412 219.559C381.412 217.812 382.868 216.357 384.615 216.357H435.465C437.212 216.357 438.667 217.812 438.667 219.559Z" fill="#324A5E"/>
</g>
<g id="XMLID_45__2">
<path id="XMLID_46__2" d="M431.725 153.151C431.725 141.366 422.106 131.506 410.081 131.506C398.296 131.506 388.677 141.126 388.677 153.151C388.677 164.935 398.296 174.555 410.081 174.555C422.106 174.555 431.725 164.935 431.725 153.151ZM411.283 163.492C413.207 163.492 415.131 163.973 416.815 164.454C415.372 169.023 413.448 171.909 411.283 172.631V163.492ZM411.283 161.808V154.112H418.258C418.258 157.479 417.777 160.365 417.296 163.011C415.372 162.289 413.207 161.808 411.283 161.808ZM411.283 152.189V144.493C413.448 144.493 415.372 144.012 417.296 143.29C418.017 145.936 418.258 148.822 418.258 152.189H411.283ZM411.283 142.569V133.43C413.448 134.151 415.612 137.037 416.815 141.607C414.891 142.328 413.207 142.569 411.283 142.569ZM414.65 133.911C417.777 134.632 420.663 136.075 423.068 137.999C421.625 139.202 420.182 140.164 418.498 140.885C417.536 137.999 416.093 135.594 414.65 133.911ZM409.359 133.43V142.569C407.435 142.569 405.511 142.088 403.828 141.607C405.271 137.037 407.195 134.151 409.359 133.43ZM402.144 140.885C400.461 140.164 399.018 139.202 397.575 137.999C399.98 136.075 402.866 134.632 405.992 133.911C404.309 135.594 403.106 137.999 402.144 140.885ZM409.359 144.493V152.189H402.385C402.385 148.822 402.866 145.936 403.347 143.29C405.271 144.012 407.435 144.252 409.359 144.493ZM409.359 154.112V161.808C407.195 161.808 405.271 162.289 403.347 163.011C402.625 160.365 402.385 157.479 402.385 154.112H409.359ZM409.359 163.492V172.631C407.195 171.909 405.03 169.023 403.828 164.454C405.511 163.973 407.435 163.732 409.359 163.492ZM405.992 172.39C402.866 171.669 399.98 170.226 397.575 168.302C399.018 167.099 400.461 166.137 402.144 165.416C403.106 168.302 404.309 170.707 405.992 172.39ZM418.498 165.416C420.182 166.137 421.625 167.099 423.068 168.302C420.663 170.226 417.777 171.669 414.65 172.39C416.093 170.707 417.536 168.302 418.498 165.416ZM418.979 163.492C419.701 160.606 420.182 157.479 420.182 153.872H430.282C430.042 158.922 427.877 163.492 424.511 166.859C422.587 165.656 420.903 164.454 418.979 163.492ZM430.042 152.189H419.941C419.941 148.822 419.46 145.455 418.739 142.569C420.663 141.607 422.587 140.645 424.27 139.202C427.637 142.569 429.801 147.138 430.042 152.189ZM396.372 139.202C398.056 140.645 399.98 141.847 401.904 142.569C401.182 145.455 400.701 148.581 400.701 152.189H390.6C390.841 147.138 393.005 142.569 396.372 139.202ZM390.6 154.112H400.461C400.461 157.479 400.942 160.846 401.663 163.732C399.739 164.694 397.815 165.656 396.132 167.099C393.005 163.732 390.841 159.163 390.6 154.112Z" fill="#EE7D00"/>
</g>
</g>
<g id="Group 15">
<g id="XMLID_75__3">
<path id="XMLID_76__3" d="M351.079 8.14325V78.402H229V8.14325C229 5.32902 231.329 3 234.143 3H346.033C348.75 3 351.079 5.32902 351.079 8.14325Z" fill="#324A5E"/>
</g>
<g id="XMLID_73__3">
<path id="XMLID_74__3" d="M345.982 73.2082V8.09271L234.092 8.09271V73.2082L345.982 73.2082Z" fill="#E5E5E5"/>
</g>
<g id="XMLID_71__3">
<path id="XMLID_72__3" d="M351.079 78.402V85.5831C351.079 88.3974 348.75 90.7264 345.936 90.7264H234.143C231.329 90.7264 229 88.3974 229 85.5831V78.402H351.079Z" fill="#E5E5E5"/>
</g>
<g id="XMLID_69__3">
<path id="XMLID_70__3" d="M308.187 104.409H271.893L277.424 90.7264H302.655L308.187 104.409Z" fill="#E5E5E5"/>
</g>
<g id="XMLID_67__3" opacity="0.5">
<path id="XMLID_68__3" opacity="0.5" d="M274.61 90.7264L305.469 104.409L299.841 90.7264H274.61Z" fill="#ADB3BA"/>
</g>
<g id="XMLID_65__3">
<path id="XMLID_66__3" d="M318.667 107.321C318.667 109.067 317.212 110.523 315.465 110.523H264.615C262.868 110.523 261.412 109.067 261.412 107.321C261.412 105.574 262.868 104.118 264.615 104.118H315.465C317.212 104.118 318.667 105.574 318.667 107.321Z" fill="#324A5E"/>
</g>
<g id="XMLID_45__3">
<path id="XMLID_46__3" d="M311.725 40.912C311.725 29.1277 302.106 19.2673 290.081 19.2673C278.296 19.2673 268.677 28.8872 268.677 40.912C268.677 52.6964 278.296 62.3162 290.081 62.3162C302.106 62.3162 311.725 52.6964 311.725 40.912ZM291.283 51.2534C293.207 51.2534 295.131 51.7344 296.815 52.2154C295.372 56.7848 293.448 59.6708 291.283 60.3923V51.2534ZM291.283 49.5699V41.874H298.258C298.258 45.241 297.777 48.1269 297.296 50.7724C295.372 50.0509 293.207 49.5699 291.283 49.5699ZM291.283 39.95V32.2542C293.448 32.2542 295.372 31.7732 297.296 31.0517C298.017 33.6971 298.258 36.5831 298.258 39.95H291.283ZM291.283 30.3302V21.1913C293.448 21.9128 295.612 24.7988 296.815 29.3682C294.891 30.0897 293.207 30.3302 291.283 30.3302ZM294.65 21.6723C297.777 22.3938 300.663 23.8368 303.068 25.7607C301.625 26.9632 300.182 27.9252 298.498 28.6467C297.536 25.7607 296.093 23.3558 294.65 21.6723ZM289.359 21.1913V30.3302C287.435 30.3302 285.511 29.8492 283.828 29.3682C285.271 24.7988 287.195 21.9128 289.359 21.1913ZM282.144 28.6467C280.461 27.9252 279.018 26.9632 277.575 25.7607C279.98 23.8368 282.866 22.3938 285.992 21.6723C284.309 23.3558 283.106 25.7607 282.144 28.6467ZM289.359 32.2542V39.95H282.385C282.385 36.5831 282.866 33.6971 283.347 31.0517C285.271 31.7732 287.435 32.0137 289.359 32.2542ZM289.359 41.874V49.5699C287.195 49.5699 285.271 50.0509 283.347 50.7724C282.625 48.1269 282.385 45.241 282.385 41.874H289.359ZM289.359 51.2534V60.3923C287.195 59.6708 285.03 56.7848 283.828 52.2154C285.511 51.7344 287.435 51.4939 289.359 51.2534ZM285.992 60.1518C282.866 59.4303 279.98 57.9873 277.575 56.0633C279.018 54.8609 280.461 53.8989 282.144 53.1774C283.106 56.0633 284.309 58.4683 285.992 60.1518ZM298.498 53.1774C300.182 53.8989 301.625 54.8609 303.068 56.0633C300.663 57.9873 297.777 59.4303 294.65 60.1518C296.093 58.4683 297.536 56.0633 298.498 53.1774ZM298.979 51.2534C299.701 48.3674 300.182 45.241 300.182 41.6335H310.282C310.042 46.684 307.877 51.2534 304.511 54.6203C302.587 53.4179 300.903 52.2154 298.979 51.2534ZM310.042 39.95H299.941C299.941 36.5831 299.46 33.2161 298.739 30.3302C300.663 29.3682 302.587 28.4062 304.27 26.9632C307.637 30.3302 309.801 34.8996 310.042 39.95ZM276.372 26.9632C278.056 28.4062 279.98 29.6087 281.904 30.3302C281.182 33.2161 280.701 36.3426 280.701 39.95H270.6C270.841 34.8996 273.005 30.3302 276.372 26.9632ZM270.6 41.874H280.461C280.461 45.241 280.942 48.6079 281.663 51.4939C279.739 52.4559 277.815 53.4179 276.132 54.8609C273.005 51.4939 270.841 46.9245 270.6 41.874Z" fill="#EE7D00"/>
</g>
</g>
</g>
</svg>
