<svg xmlns="http://www.w3.org/2000/svg" width="206.3" height="49.24" viewBox="0 0 206.3 49.24"><title>logintegra-logo</title><g id="Warstwa_2" data-name="Warstwa 2"><g id="Warstwa_1-2" data-name="Warstwa 1"><path d="M3.66,38.94H0V0H3.66V38.94ZM33.08,25.85A13.14,13.14,0,0,1,29,35.55a13.38,13.38,0,0,1-9.75,4,13.15,13.15,0,0,1-9.63-4,13.2,13.2,0,0,1-4-9.68,13.36,13.36,0,0,1,4-9.72A13.12,13.12,0,0,1,19.32,12,13.24,13.24,0,0,1,29,16.1a13.3,13.3,0,0,1,4.07,9.75Zm-3.56-.14A10.11,10.11,0,0,0,19.32,15.5a9.59,9.59,0,0,0-7.15,3.06,10.18,10.18,0,0,0-3,7.34,9.94,9.94,0,0,0,3,7.22,9.7,9.7,0,0,0,7.17,3,9.64,9.64,0,0,0,7.2-3.06,10.23,10.23,0,0,0,3-7.39ZM61.4,37.25a11,11,0,0,1-3.85,8.52,13.66,13.66,0,0,1-9.48,3.47,13.43,13.43,0,0,1-8.23-2.65A12.94,12.94,0,0,1,35,39.52h3.51q3.37,6.31,9.58,6.31a10.27,10.27,0,0,0,6.64-2.17,8.07,8.07,0,0,0,3.08-5.58q.1-.77.1-3.18v-1A9.09,9.09,0,0,1,54,38.07a12.47,12.47,0,0,1-6.19,1.49,13.48,13.48,0,0,1-9.77-3.95A12.94,12.94,0,0,1,34,26a13.67,13.67,0,0,1,3.92-9.94,12.9,12.9,0,0,1,9.6-4,11.53,11.53,0,0,1,10.4,5.54v-5H61.4V37.25ZM57.94,25.8a9.87,9.87,0,0,0-3-7.32,10.11,10.11,0,0,0-7.36-3,9.4,9.4,0,0,0-7.05,2.91,10.13,10.13,0,0,0-2.82,7.34,10.24,10.24,0,0,0,2.89,7.41,9.58,9.58,0,0,0,7.17,3,9.76,9.76,0,0,0,7.22-3A10.05,10.05,0,0,0,57.94,25.8Z" fill="#f57104" fill-rule="evenodd"/><path d="M68,6.11H64.35V0H68V6.11Zm0,32.83H64.35V12.61H68V38.94Zm26.25,0H90.65V24.4a9.18,9.18,0,0,0-2.24-6.47,7.69,7.69,0,0,0-5.94-2.43,8.22,8.22,0,0,0-4,1,7.16,7.16,0,0,0-2.84,2.82,9.67,9.67,0,0,0-1,4.74V38.94H71V12.61h3.42v3.75A9.61,9.61,0,0,1,82.51,12,11.27,11.27,0,0,1,91,15.42a11.89,11.89,0,0,1,3.3,8.64V38.94ZM110,15.88h-6.16V38.94h-3.61V15.88H94.76V12.61h5.49V0h3.61V12.61H110v3.27Zm55,21.37a11,11,0,0,1-3.85,8.52,13.66,13.66,0,0,1-9.48,3.47,13.43,13.43,0,0,1-8.23-2.65,12.94,12.94,0,0,1-4.81-7.08h3.51q3.37,6.31,9.58,6.31a10.27,10.27,0,0,0,6.64-2.17,8.07,8.07,0,0,0,3.08-5.58q.1-.77.1-3.18v-1a9.09,9.09,0,0,1-3.92,4.19,12.47,12.47,0,0,1-6.19,1.49,13.48,13.48,0,0,1-9.77-3.95,12.94,12.94,0,0,1-4-9.63,13.68,13.68,0,0,1,3.92-9.94,12.9,12.9,0,0,1,9.6-4,11.53,11.53,0,0,1,10.4,5.54v-5h3.47V37.25ZM161.6,25.8a9.87,9.87,0,0,0-3-7.32,10.11,10.11,0,0,0-7.36-3,9.4,9.4,0,0,0-7.05,2.91,10.13,10.13,0,0,0-2.82,7.34,10.24,10.24,0,0,0,2.89,7.41,9.58,9.58,0,0,0,7.17,3,9.76,9.76,0,0,0,7.22-3,10.05,10.05,0,0,0,3-7.32ZM179,15.5a7.12,7.12,0,0,0-5.1,2.21,6.75,6.75,0,0,0-2.26,4.91V38.94h-3.61V12.61h3.42v3.71A7.62,7.62,0,0,1,178.65,12H179V15.5ZM206.3,38.94V12.61h-3.47v4.86a11.06,11.06,0,0,0-10-5.44,14.14,14.14,0,0,0-10.21,4,13.09,13.09,0,0,0-4.19,9.77,12.89,12.89,0,0,0,4.19,9.77A14.45,14.45,0,0,0,193,39.57a11.26,11.26,0,0,0,9.87-5.44v4.81ZM202.83,25.8a10.27,10.27,0,0,1-10.3,10.3,10.13,10.13,0,0,1-7.37-3,9.84,9.84,0,0,1-3.08-7.27,9.79,9.79,0,0,1,3.08-7.32,10.45,10.45,0,0,1,7.56-3,9.68,9.68,0,0,1,7.17,3A10,10,0,0,1,202.83,25.8Z" fill="#1d1d1b" fill-rule="evenodd"/><path d="M131.49,15.14,118.15,34.83a8.3,8.3,0,0,0,7,1.08,10.37,10.37,0,0,0,7.92-9.81,9,9,0,0,0-1.38-5.35l2.13-3.15a14.31,14.31,0,0,1,2.67,8,13.3,13.3,0,0,1-2.35,7.89,13.82,13.82,0,0,1-24.94-5.15A13.29,13.29,0,0,1,111.39,18,13.47,13.47,0,0,1,118,12.86a12.6,12.6,0,0,1,8.24-.32,20.35,20.35,0,0,1,2.51,1,22.7,22.7,0,0,1,2.7,1.63Zm-4.28,1.18a11.16,11.16,0,0,0-7.1-.33,9.76,9.76,0,0,0-5.46,4,9.83,9.83,0,0,0-1.74,6.61,10.67,10.67,0,0,0,3,6.39Z" fill="#1d1d1b" fill-rule="evenodd"/></g></g></svg>