<svg width="580" height="300" viewBox="0 0 580 300" fill="none" xmlns="http://www.w3.org/2000/svg">
<g id="Monitorowanie">
<g id="Frame" clip-path="url(#clip0)">
<g id="XMLID 1">
<g id="XMLID 14">
<g id="XMLID 71">
<path id="XMLID 72" d="M385.018 41.8132V257.003C385.018 261.961 380.972 265.816 376.19 265.816H217.829C212.862 265.816 209 261.777 209 257.003V74.3121L250.384 33H376.19C380.972 33 385.018 37.0394 385.018 41.8132Z" fill="#E5E5E5"/>
</g>
<g id="XMLID 69">
<path id="XMLID 70" d="M250.384 33V65.4988C250.384 70.4563 246.337 74.3121 241.555 74.3121H209L250.384 33Z" fill="#EE7D00"/>
</g>
<g id="XMLID 46">
<path id="XMLID 47" d="M338.301 217.344C337.381 217.344 336.645 216.609 336.645 215.691V206.143H319.356V215.691C319.356 216.609 318.62 217.344 317.701 217.344C316.781 217.344 316.045 216.609 316.045 215.691V206.143H298.756V215.691C298.756 216.609 298.021 217.344 297.101 217.344C296.181 217.344 295.446 216.609 295.446 215.691V206.143H278.156V215.691C278.156 216.609 277.421 217.344 276.501 217.344C275.581 217.344 274.846 216.609 274.846 215.691V206.143H257.557V215.691C257.557 216.609 256.821 217.344 255.901 217.344C254.982 217.344 254.246 216.609 254.246 215.691V206.143H240.635C239.716 206.143 238.98 205.409 238.98 204.491C238.98 203.573 239.716 202.838 240.635 202.838H254.246V187.783H240.635C239.716 187.783 238.98 187.048 238.98 186.13C238.98 185.212 239.716 184.478 240.635 184.478H254.246V169.422H240.635C239.716 169.422 238.98 168.687 238.98 167.769C238.98 166.851 239.716 166.117 240.635 166.117H254.246V151.061H240.635C239.716 151.061 238.98 150.326 238.98 149.408C238.98 148.49 239.716 147.756 240.635 147.756H254.246V132.7H240.635C239.716 132.7 238.98 131.965 238.98 131.047C238.98 130.129 239.716 129.395 240.635 129.395H254.246V114.339H240.635C239.716 114.339 238.98 113.604 238.98 112.686C238.98 111.768 239.716 111.034 240.635 111.034H254.246V101.486C254.246 100.568 254.982 99.8337 255.901 99.8337C256.821 99.8337 257.557 100.568 257.557 101.486V111.034H274.846V101.486C274.846 100.568 275.581 99.8337 276.501 99.8337C277.421 99.8337 278.156 100.568 278.156 101.486V111.034H295.446V101.486C295.446 100.568 296.181 99.8337 297.101 99.8337C298.021 99.8337 298.756 100.568 298.756 101.486V111.034H316.045V101.486C316.045 100.568 316.781 99.8337 317.701 99.8337C318.62 99.8337 319.356 100.568 319.356 101.486V111.034H336.645V101.486C336.645 100.568 337.381 99.8337 338.301 99.8337C339.22 99.8337 339.956 100.568 339.956 101.486V111.034H353.567C354.486 111.034 355.222 111.768 355.222 112.686C355.222 113.604 354.486 114.339 353.567 114.339H339.956V129.395H353.567C354.486 129.395 355.222 130.129 355.222 131.047C355.222 131.965 354.486 132.7 353.567 132.7H339.956V147.756H353.567C354.486 147.756 355.222 148.49 355.222 149.408C355.222 150.326 354.486 151.061 353.567 151.061H339.956V166.117H353.567C354.486 166.117 355.222 166.851 355.222 167.769C355.222 168.687 354.486 169.422 353.567 169.422H339.956V184.478H353.567C354.486 184.478 355.222 185.212 355.222 186.13C355.222 187.048 354.486 187.783 353.567 187.783H339.956V202.838H353.567C354.486 202.838 355.222 203.573 355.222 204.491C355.222 205.409 354.486 206.143 353.567 206.143H339.956V215.691C339.956 216.609 339.22 217.344 338.301 217.344ZM336.645 202.838V187.783H319.356V202.838H336.645ZM316.045 202.838V187.783H298.756V202.838H316.045ZM295.446 202.838V187.783H278.156V202.838H295.446ZM274.662 202.838V187.783H257.373V202.838H274.662ZM336.645 184.478V169.422H319.356V184.478H336.645ZM316.045 184.478V169.422H298.756V184.478H316.045ZM295.446 184.478V169.422H278.156V184.478H295.446ZM274.662 184.478V169.422H257.373V184.478H274.662ZM336.645 166.117V151.061H319.356V166.117H336.645ZM316.045 166.117V151.061H298.756V166.117H316.045ZM295.446 166.117V151.061H278.156V166.117H295.446ZM274.662 166.117V151.061H257.373V166.117H274.662ZM336.645 147.756V132.7H319.356V147.756H336.645ZM316.045 147.756V132.7H298.756V147.756H316.045ZM295.446 147.756V132.7H278.156V147.756H295.446ZM274.662 147.756V132.7H257.373V147.756H274.662ZM336.645 129.395V114.339H319.356V129.395H336.645ZM316.045 129.395V114.339H298.756V129.395H316.045ZM295.446 129.395V114.339H278.156V129.395H295.446ZM274.662 129.395V114.339H257.373V129.395H274.662Z" fill="white"/>
</g>
<g id="XMLID 19">
<g id="XMLID 20">
<g id="XMLID 21">
<path id="XMLID 22" d="M342.347 138.024C342.163 138.208 341.795 138.208 341.611 138.208C341.06 138.208 340.508 137.841 340.14 137.474L338.853 135.454C320.644 202.288 256.453 206.143 255.901 206.143C254.982 206.143 254.246 205.409 254.246 204.491C254.246 203.573 254.798 202.838 255.718 202.838C256.269 202.838 318.253 198.983 335.726 134.536L333.519 135.821C333.335 136.005 332.967 136.005 332.599 136.005C332.047 136.005 331.495 135.637 331.128 135.27C330.944 134.903 330.944 134.536 330.944 133.985C331.128 133.618 331.312 133.251 331.679 132.883L337.197 129.578C337.197 129.578 337.381 129.578 337.381 129.395C337.565 129.395 337.749 129.211 337.933 129.211H338.301C338.485 129.211 338.669 129.395 338.669 129.395C338.853 129.578 339.036 129.578 339.036 129.762L339.22 129.946L342.531 135.454C343.451 136.556 343.083 137.474 342.347 138.024Z" fill="#EE7D00"/>
</g>
</g>
</g>
<g id="XMLID 15">
<g id="XMLID 16">
<g id="XMLID 17">
<path id="XMLID 18" d="M320.46 136.188C320.276 136.372 319.908 136.372 319.54 136.372C318.988 136.372 318.436 136.005 318.069 135.638L317.701 134.903C304.458 181.723 260.316 186.681 256.085 186.864H255.717C254.798 186.864 254.062 186.13 254.062 185.212C254.062 184.294 254.614 183.559 255.533 183.559C255.901 183.559 301.147 180.622 314.574 133.985L313.838 134.352C313.654 134.536 313.287 134.536 312.919 134.536C312.367 134.536 311.815 134.169 311.447 133.801C311.263 133.434 311.079 133.067 311.263 132.516C311.447 132.149 311.631 131.782 311.999 131.414L316.045 129.028C316.229 128.844 316.413 128.844 316.597 128.844C316.781 128.844 316.781 128.844 316.965 128.844H317.333H317.517C317.701 128.844 317.701 129.028 317.885 129.028C317.885 129.028 318.069 129.028 318.069 129.211H318.436V129.762L320.828 133.618C321.563 134.536 321.379 135.638 320.46 136.188Z" fill="#324A5E"/>
</g>
</g>
</g>
</g>
<g id="XMLID 2">
<g id="XMLID 11">
<g id="XMLID 12">
<path id="XMLID 13" d="M419.965 229.829C434.311 244.151 432.472 251.311 426.954 257.003C421.436 262.511 414.079 264.348 399.733 250.026C385.386 235.705 369.385 210.734 374.902 205.225C380.604 199.534 405.618 215.507 419.965 229.829Z" fill="#EE7D00"/>
</g>
</g>
<g id="XMLID 8">
<g id="XMLID 9">
<path id="XMLID 10" d="M382.26 194.576L391.088 203.389C392.192 204.491 392.376 206.327 391.456 207.245L376.19 222.485C375.27 223.403 373.431 223.403 372.328 222.117L363.499 213.304L382.26 194.576Z" fill="#324E66"/>
</g>
</g>
<g id="XMLID 3">
<g id="XMLID 4">
<path id="XMLID 5" d="M276.318 106.811C248.177 134.903 248.177 180.438 276.318 208.53C304.458 236.623 350.072 236.623 378.213 208.53C406.354 180.438 406.354 134.903 378.213 106.811C350.072 78.7187 304.458 78.7187 276.318 106.811ZM367.361 197.514C345.29 219.547 309.424 219.547 287.353 197.514C265.282 175.481 265.282 139.677 287.353 117.644C309.424 95.6107 345.29 95.6107 367.361 117.644C389.433 139.677 389.433 175.481 367.361 197.514Z" fill="#324A5E"/>
</g>
</g>
</g>
</g>
</g>
</g>
<defs>
<clipPath id="clip0">
<rect width="222" height="233" fill="white" transform="translate(209 33)"/>
</clipPath>
</defs>
</svg>
