<svg width="91" height="27" viewBox="0 0 91 27" fill="none" xmlns="http://www.w3.org/2000/svg">
<g clip-path="url(#clip0)">
<path fill-rule="evenodd" clip-rule="evenodd" d="M80.4999 16.4H89.3999L90.7999 21.3H79.3999L80.4999 16.4Z" fill="#009DE0"/>
<path fill-rule="evenodd" clip-rule="evenodd" d="M89.2 22L90.3 26H84.6L83.7 22H89.2ZM80.5 8.3L78.6 16.5L76.3 26H70.6L77.9 0.4H83L87.4 15.6H82.2L80.5 8.3ZM71.1 16.3V15.8H65.8C65.7 19.8 64.6 21.7 62.2 21.7C59.2 21.7 57.9 18.9 57.9 13.3C57.9 7.6 59.3 4.9 62.2 4.9C64.5 4.9 65.5 6.6 65.8 10.3H71C70.9 3.5 67.8 0 62 0C55.9 0 52.5 4.6 52.5 13.3C52.5 22.2 55.7 26.6 62.2 26.6C68 26.5 71.1 23 71.1 16.3ZM5.3 11.2V26H0V0.5H5.1L11.6 14.6V0.5H16.9V26.1H12.3L5.3 11.2ZM33 26.1V21.2H24.4V15.5H32.3V11.1H24.4V5.4H33V0.5H19.1V26.1H33ZM50.8 17V0.5H45.5V15.7C45.5 19.7 45.3 21.8 42.7 21.8C40.1 21.8 40 19.7 40 15.7V0.5H34.7V17C34.7 20.2 34.9 22.4 36.2 24.1C37.6 25.9 39.7 26.6 42.7 26.6C45.7 26.6 47.8 25.9 49.2 24.1C50.6 22.4 50.8 20.2 50.8 17Z" fill="#4B4B4A"/>
</g>
<defs>
<clipPath id="clip0">
<rect width="90.8" height="26.5" fill="white"/>
</clipPath>
</defs>
</svg>
