<svg width="200" height="200" viewBox="0 0 200 200" fill="none" xmlns="http://www.w3.org/2000/svg">
<g id="Oszczednosci - orange">
<g id="Group 10">
<g id="Group 9">
<path id="$" d="M106.019 44.1016C106.019 43.1654 105.67 42.3768 104.972 41.7358C104.285 41.0947 103.119 40.5147 101.476 39.9958C99.188 39.3344 97.5177 38.4746 96.4651 37.4163C95.4232 36.3479 94.9023 34.9946 94.9023 33.3563C94.9023 31.6875 95.4125 30.3189 96.4329 29.2505C97.464 28.1821 98.8765 27.5461 100.67 27.3426V24H103.071V27.3579C104.875 27.5919 106.277 28.3093 107.276 29.51C108.286 30.7107 108.791 32.354 108.791 34.44H105.826C105.826 33.0053 105.466 31.8656 104.747 31.0211C104.027 30.1765 103.055 29.7542 101.83 29.7542C100.552 29.7542 99.5747 30.0696 98.898 30.7005C98.2213 31.3212 97.8829 32.1912 97.8829 33.3105C97.8829 34.3484 98.2374 35.1777 98.9463 35.7984C99.666 36.4089 100.842 36.9686 102.475 37.4774C104.118 37.976 105.396 38.5305 106.309 39.1411C107.233 39.7414 107.91 40.4435 108.339 41.2474C108.78 42.0512 109 42.9925 109 44.0711C109 45.7907 108.452 47.1746 107.357 48.2226C106.272 49.2707 104.747 49.8914 102.781 50.0847V53H100.396V50.0847C98.3985 49.9118 96.8303 49.2402 95.6917 48.07C94.5639 46.8896 94 45.2921 94 43.2774H96.9807C96.9807 44.6918 97.3727 45.7805 98.1568 46.5437C98.9409 47.3068 100.053 47.6884 101.492 47.6884C102.899 47.6884 104.005 47.3679 104.811 46.7268C105.617 46.0858 106.019 45.2107 106.019 44.1016Z" fill="#EE7D00"/>
<g id="Group 8">
<path id="Vector 1" d="M162.5 113.224C143.793 66.0045 93.5531 70.5099 70.1693 77.6777C66.4926 74.3864 58.3009 66.9699 54.9478 63.6347C51.5946 60.2995 50.168 62.8302 49.8739 64.5124C49.8004 68.3888 49.6974 78.3798 49.8739 87.3322C38.4026 96.4602 31.8581 108.397 30.0197 113.224H21.8574C17.7984 113.224 16.9306 116.588 17.0042 118.271V133.63C17.0042 138.37 20.5338 139.408 22.2986 139.335H30.0197C32.314 147.585 43.3294 159.302 48.5503 164.13C48.4032 166.69 48.065 172.775 47.8885 176.637C47.712 180.499 50.168 181.903 51.4181 182.122C53.1094 182.415 57.8597 183 63.3306 183C70.1693 183 69.2869 179.928 70.1693 174.881C89.2293 181.552 113.849 177.661 123.776 174.881C123.776 181.903 125.982 183 127.967 183H141.424C148.483 182.342 145.669 167.588 145.395 164.13C162.16 148.77 164.587 141.104 164.587 127.5C177.382 124.209 184 110.5 184 104.228C184 104.228 175.736 110.591 162.5 113.224Z" stroke="#EE7D00" stroke-width="8" stroke-miterlimit="4.7764"/>
<circle id="Ellipse 1" cx="101.5" cy="39.5" r="22.5" stroke="#EE7D00" stroke-width="8"/>
</g>
</g>
<circle id="Ellipse 2" r="5" transform="matrix(-1 0 0 1 50 114)" fill="#EE7D00"/>
</g>
</g>
</svg>
