<?xml version="1.0" encoding="UTF-8" standalone="no"?>
<!-- Created with Inkscape (http://www.inkscape.org/) -->
<!DOCTYPE svg PUBLIC "-//W3C//DTD SVG 1.1//EN" "http://www.w3.org/Graphics/SVG/1.1/DTD/svg11.dtd">
<svg
   xmlns:svg="http://www.w3.org/2000/svg"
   xmlns="http://www.w3.org/2000/svg"
   version="1.1"
   width="400"
   height="120"
   id="svg2816"
   xml:space="preserve"><defs
     id="defs2820" /><g
     transform="matrix(1.25,0,0,-1.25,-191.56715,410.11543)"
     id="g2826"><g
       transform="matrix(2.351288,0,0,2.351288,-199.08991,-305.10532)"
       id="g9302"><path
         d="m 282.54456,249.15774 -2.72953,0.80271 c -2.95076,-2.99058 -7.72683,-4.55614 -13.68818,-4.55614 -8.81054,0 -14.20978,3.23158 -14.20978,9.09216 0,6.08121 5.74012,9.67363 14.55066,9.67363 5.3388,0 9.43372,-1.2844 12.18319,-3.81334 l 2.64914,0.86325 c -3.55212,2.88984 -9.01119,4.31482 -16.53798,4.31482 -12.10218,0 -21.67549,-4.57618 -21.67549,-10.89807 0,-6.62316 9.57331,-10.93827 21.33461,-10.93827 8.20855,0 14.63105,1.92675 18.12336,5.45925"
         id="path3066"
         style="fill:#ff9200;fill-opacity:1;fill-rule:nonzero;stroke:none" /><path
         d="m 239.33316,249.15774 -2.74947,0.80271 c -2.93019,-2.99058 -7.72682,-4.55614 -13.6676,-4.55614 -8.79135,0 -14.19035,3.23158 -14.19035,9.09216 0,6.08121 5.74011,9.67363 14.53122,9.67363 5.3388,0 9.4331,-1.2844 12.16262,-3.81334 l 2.6691,0.86325 c -3.55214,2.88984 -9.0112,4.31482 -16.53737,4.31482 -12.08279,0 -21.65629,-4.57618 -21.65629,-10.89807 0,-6.62316 9.5735,-10.93827 21.31478,-10.93827 8.20918,0 14.63105,1.92675 18.12336,5.45925"
         id="path3070"
         style="fill:#ff9200;fill-opacity:1;fill-rule:nonzero;stroke:none" /><path
         d="m 162.28533,247.37127 c 2.64914,-1.20438 5.94091,-1.82666 9.67397,-1.82666 8.8109,0 14.2099,3.23157 14.2099,9.09215 0,6.08119 -5.74038,9.67362 -14.55135,9.67362 -5.29854,0 -9.43292,-1.42468 -12.16242,-3.91345 -0.0201,-0.0201 -0.0201,-0.0402 -0.0201,-0.0803 l -0.0201,-28.07817 -6.16151,0 0,29.1018 0,0.0602 c 4.77669,3.81334 14.37031,4.27494 20.07025,4.27494 12.10241,0 21.67591,-4.57618 21.67591,-10.89806 0,-6.62349 -9.5735,-10.93858 -21.3348,-10.93858 -5.07767,0 -9.49317,0.74277 -12.92529,2.14766 l 1.5455,1.38484"
         id="path3072"
         style="fill:#ff9200;fill-opacity:1;fill-rule:nonzero;stroke:none" /><path
         d="m 254.60609,237.30421 c 0.18259,-0.0822 0.33777,-0.20298 0.46615,-0.363 0.10282,-0.13151 0.1857,-0.27693 0.24741,-0.43667 0.0617,-0.15977 0.0928,-0.34175 0.0928,-0.54589 0,-0.24679 -0.0598,-0.48903 -0.17822,-0.72757 -0.11904,-0.23856 -0.31471,-0.40682 -0.58829,-0.5054 0.2287,-0.0965 0.39136,-0.23307 0.4867,-0.41019 0.0953,-0.17742 0.14334,-0.44882 0.14334,-0.814 l 0,-0.35054 c 0,-0.23794 0.008,-0.39953 0.0243,-0.48441 0.028,-0.13447 0.0916,-0.23369 0.19007,-0.2973 l 0,-0.13081 -1.14167,0 c -0.0343,0.11561 -0.0573,0.2087 -0.0698,0.27962 -0.0293,0.14608 -0.0449,0.29576 -0.0474,0.44913 l -0.007,0.48471 c -0.004,0.33258 -0.058,0.55414 -0.16141,0.66486 -0.10343,0.11081 -0.29726,0.16645 -0.5808,0.16645 l -1.00022,0 0,-2.04477 -1.02262,0 0,5.19963 2.3687,0 c 0.33652,-0.007 0.5964,-0.0517 0.77835,-0.13385 z m -2.12442,-0.76198 0,-1.40216 1.10365,0 c 0.21999,0 0.3845,0.0283 0.49544,0.085 0.19319,0.0991 0.28977,0.29512 0.28977,0.58784 0,0.31614 -0.0935,0.5289 -0.27918,0.63721 -0.10656,0.0614 -0.26548,0.0922 -0.47612,0.0922 l -1.13356,0"
         id="path3082"
         style="fill:#160070;fill-opacity:1;fill-rule:nonzero;stroke:none" /><path
         d="m 261.07347,232.69727 c -0.40506,-0.4032 -0.99148,-0.60492 -1.75799,-0.60492 -0.76651,0 -1.3523,0.20172 -1.75676,0.60492 -0.54403,0.49812 -0.81511,1.21503 -0.81511,2.15073 0,0.9524 0.27108,1.66807 0.81511,2.14675 0.40446,0.40592 0.99025,0.60884 1.75676,0.60884 0.76651,0 1.35293,-0.20292 1.75799,-0.60884 0.54092,-0.47868 0.81139,-1.19435 0.81139,-2.14675 0,-0.9357 -0.27047,-1.65261 -0.81139,-2.15073 z m -0.69173,0.79513 c 0.26174,0.31646 0.39322,0.76832 0.39322,1.3556 0,0.58212 -0.13148,1.03306 -0.39322,1.35193 -0.26236,0.31888 -0.6157,0.47867 -1.0619,0.47867 -0.44619,0 -0.80203,-0.15917 -1.06814,-0.47686 -0.26547,-0.31764 -0.39819,-0.76921 -0.39819,-1.35374 0,-0.58728 0.13272,-1.03914 0.39819,-1.3556 0.26611,-0.31677 0.62195,-0.47497 1.06814,-0.47497 0.4462,0 0.79954,0.1582 1.0619,0.47497"
         id="path3084"
         style="fill:#160070;fill-opacity:1;fill-rule:nonzero;stroke:none" /><path
         d="m 263.23903,237.43806 1.11051,0 0,-2.1461 2.07582,2.1461 1.44764,0 -2.20168,-2.14187 2.31447,-3.05776 -1.44016,0 -1.65518,2.27088 -0.54091,-0.53157 0,-1.73931 -1.11051,0 0,5.19963"
         id="path3086"
         style="fill:#160070;fill-opacity:1;fill-rule:nonzero;stroke:none" /><path
         d="m 270.04542,232.23843 -1.11051,0 0,5.19963 1.11051,0 0,-5.19963"
         id="path3088"
         style="fill:#160070;fill-opacity:1;fill-rule:nonzero;stroke:none" /><path
         d="m 275.55496,237.4478 0,-0.92498 -1.47009,0 0,-4.28439 -1.03198,0 0,4.28439 -1.47071,0 0,0.92498 3.97278,0"
         id="path3090"
         style="fill:#160070;fill-opacity:1;fill-rule:nonzero;stroke:none" /><path
         d="m 277.84391,237.43806 1.26629,0 1.89385,-5.19963 -1.2152,0 -0.35272,1.07107 -1.96737,0 -0.36395,-1.07107 -1.17221,0 1.91131,5.19963 z m -0.071,-3.23276 1.36789,0 -0.67367,2.04573 -0.69422,-2.04573"
         id="path3092"
         style="fill:#160070;fill-opacity:1;fill-rule:nonzero;stroke:none" /><path
         d="m 162.62466,232.23843 0,1.30444 85.88049,0 0,-1.30444 -85.88049,0"
         id="path3094"
         style="fill:#160070;fill-opacity:1;fill-rule:nonzero;stroke:none" /></g></g></svg>