<svg width="580" height="300" viewBox="0 0 580 300" fill="none" xmlns="http://www.w3.org/2000/svg">
<g id="Prosto i szybko">
<g id="Group 13">
<g id="XMLID_75_">
<path id="XMLID_76_" d="M444.382 26.963V204.042H136.694V26.963C136.694 19.87 142.564 14 149.657 14H431.664C438.512 14 444.382 19.87 444.382 26.963Z" fill="#324A5E"/>
</g>
<g id="XMLID_73_">
<path id="XMLID_74_" d="M431.536 190.952L431.536 26.8356L149.53 26.8356L149.53 190.952L431.536 190.952Z" fill="#E5E5E5"/>
</g>
<g id="XMLID_71_">
<path id="XMLID_72_" d="M444.382 204.042V222.142C444.382 229.235 438.512 235.105 431.419 235.105H149.657C142.564 235.105 136.694 229.235 136.694 222.142V204.042H444.382Z" fill="#E5E5E5"/>
</g>
<g id="XMLID_69_">
<path id="XMLID_70_" d="M336.275 269.591H244.801L258.742 235.105H322.334L336.275 269.591Z" fill="#E5E5E5"/>
</g>
<g id="XMLID_67_" opacity="0.5">
<path id="XMLID_68_" opacity="0.5" d="M251.649 235.105L329.427 269.591L315.241 235.105H251.649Z" fill="#ADB3BA"/>
</g>
<g id="XMLID_65_">
<path id="XMLID_66_" d="M362.691 276.929C362.691 281.331 359.022 285 354.619 285H226.457C222.054 285 218.385 281.331 218.385 276.929C218.385 272.526 222.054 268.857 226.457 268.857H354.619C359.022 268.857 362.691 272.526 362.691 276.929Z" fill="#324A5E"/>
</g>
<g id="Group 12">
<g id="XMLID_63_">
<path id="XMLID_64_" d="M391.797 49.8274V191.12H189.28V49.8274C189.28 46.499 193.438 43.6698 198.33 43.6698H382.747C387.639 43.8363 391.797 46.499 391.797 49.8274Z" fill="white"/>
</g>
<path id="XMLID_62_" d="M390.736 68.1813V49.3092C390.736 44.4074 386.849 40.2408 381.747 40.2408H198.554C193.695 40.2408 189.564 44.1623 189.564 49.3092V68.1813H390.736Z" fill="#EE7D00"/>
<g id="XMLID_57_">
<path id="XMLID_61_" d="M212.271 54.6761C212.271 57.3666 210.069 59.5678 207.379 59.5678C204.689 59.5678 202.487 57.3666 202.487 54.6761C202.487 51.9857 204.689 49.7844 207.379 49.7844C210.069 49.7844 212.271 51.9857 212.271 54.6761Z" fill="white"/>
<path id="XMLID_60_" d="M226.946 54.6761C226.946 57.3666 224.744 59.5678 222.054 59.5678C219.364 59.5678 217.162 57.3666 217.162 54.6761C217.162 51.9857 219.364 49.7844 222.054 49.7844C224.744 49.7844 226.946 51.9857 226.946 54.6761Z" fill="white"/>
<path id="XMLID_59_" d="M241.376 54.6761C241.376 57.3666 239.175 59.5678 236.484 59.5678C233.794 59.5678 231.593 57.3666 231.593 54.6761C231.593 51.9857 233.794 49.7844 236.484 49.7844C239.175 49.7844 241.376 51.9857 241.376 54.6761Z" fill="white"/>
<path id="XMLID_58_" d="M378.588 54.6761C378.588 56.8774 376.876 58.5895 374.675 58.5895H260.699C258.497 58.5895 256.785 56.8774 256.785 54.6761C256.785 52.4749 258.497 50.7628 260.699 50.7628H374.675C376.876 51.0073 378.588 52.7194 378.588 54.6761Z" fill="white"/>
</g>
<g id="XMLID_42_">
<g id="XMLID_52_">
<g id="XMLID_53_">
<path id="XMLID_54_" d="M239.664 122.14H210.559C209.336 122.14 208.602 121.161 208.602 120.183V91.0773C208.602 89.8543 209.58 89.1206 210.559 89.1206H239.664C240.887 89.1206 241.621 90.0989 241.621 91.0773V120.183C241.621 121.161 240.887 122.14 239.664 122.14ZM212.76 117.982H237.708V93.0339H212.76V117.982Z" fill="#EE7D00"/>
</g>
</g>
<g id="XMLID_50_">
<path id="XMLID_51_" d="M254.095 88.6314L232.082 111.867C231.349 112.845 229.881 112.845 228.903 111.867L220.342 102.084C219.853 101.35 219.853 100.372 220.587 99.8823C221.076 99.3932 222.054 99.3932 222.544 99.8823L230.615 106.975L252.138 86.4302C252.872 85.941 253.85 85.941 254.34 86.4302C254.584 87.1639 254.584 88.1423 254.095 88.6314Z" fill="#EE7D00"/>
</g>
</g>
<g id="XMLID_27_">
<g id="XMLID_37_">
<g id="XMLID_38_">
<path id="XMLID_39_" d="M239.664 173.747H210.559C209.336 173.747 208.602 172.769 208.602 171.79V142.685C208.602 141.462 209.58 140.728 210.559 140.728H239.664C240.887 140.728 241.621 141.706 241.621 142.685V171.79C241.621 172.769 240.887 173.747 239.664 173.747ZM212.76 169.834H237.708V144.641H212.76V169.834Z" fill="#EE7D00"/>
</g>
</g>
<g id="XMLID_35_">
<path id="XMLID_36_" d="M254.095 140.483L232.082 163.719C231.348 164.697 229.881 164.697 228.902 163.719L228.658 163.474L220.097 153.691C219.608 152.957 219.608 151.979 220.342 151.49C220.831 151.001 221.809 151.001 222.299 151.49L230.37 158.583L251.893 138.038C252.627 137.548 253.605 137.548 254.095 138.038C254.584 138.771 254.584 139.75 254.095 140.483Z" fill="#EE7D00"/>
</g>
</g>
</g>
<path id="PROSTO" d="M265.492 96.6C266.856 96.6 268.037 96.8273 269.034 97.282C270.046 97.7367 270.823 98.382 271.366 99.218C271.909 100.054 272.18 101.044 272.18 102.188C272.18 103.317 271.909 104.307 271.366 105.158C270.823 105.994 270.046 106.639 269.034 107.094C268.037 107.534 266.856 107.754 265.492 107.754H262.39V112H258.826V96.6H265.492ZM265.294 104.85C266.365 104.85 267.179 104.623 267.736 104.168C268.293 103.699 268.572 103.039 268.572 102.188C268.572 101.323 268.293 100.663 267.736 100.208C267.179 99.7387 266.365 99.504 265.294 99.504H262.39V104.85H265.294ZM284.536 112L281.566 107.71H281.39H278.288V112H274.724V96.6H281.39C282.754 96.6 283.935 96.8273 284.932 97.282C285.944 97.7367 286.722 98.382 287.264 99.218C287.807 100.054 288.078 101.044 288.078 102.188C288.078 103.332 287.8 104.322 287.242 105.158C286.7 105.979 285.922 106.61 284.91 107.05L288.364 112H284.536ZM284.47 102.188C284.47 101.323 284.192 100.663 283.634 100.208C283.077 99.7387 282.263 99.504 281.192 99.504H278.288V104.872H281.192C282.263 104.872 283.077 104.637 283.634 104.168C284.192 103.699 284.47 103.039 284.47 102.188ZM298.36 112.264C296.762 112.264 295.317 111.919 294.026 111.23C292.75 110.541 291.746 109.595 291.012 108.392C290.294 107.175 289.934 105.811 289.934 104.3C289.934 102.789 290.294 101.433 291.012 100.23C291.746 99.0127 292.75 98.0593 294.026 97.37C295.317 96.6807 296.762 96.336 298.36 96.336C299.959 96.336 301.396 96.6807 302.672 97.37C303.948 98.0593 304.953 99.0127 305.686 100.23C306.42 101.433 306.786 102.789 306.786 104.3C306.786 105.811 306.42 107.175 305.686 108.392C304.953 109.595 303.948 110.541 302.672 111.23C301.396 111.919 299.959 112.264 298.36 112.264ZM298.36 109.228C299.27 109.228 300.091 109.023 300.824 108.612C301.558 108.187 302.13 107.6 302.54 106.852C302.966 106.104 303.178 105.253 303.178 104.3C303.178 103.347 302.966 102.496 302.54 101.748C302.13 101 301.558 100.421 300.824 100.01C300.091 99.5847 299.27 99.372 298.36 99.372C297.451 99.372 296.63 99.5847 295.896 100.01C295.163 100.421 294.584 101 294.158 101.748C293.748 102.496 293.542 103.347 293.542 104.3C293.542 105.253 293.748 106.104 294.158 106.852C294.584 107.6 295.163 108.187 295.896 108.612C296.63 109.023 297.451 109.228 298.36 109.228ZM314.525 112.264C313.307 112.264 312.127 112.103 310.983 111.78C309.853 111.443 308.944 111.01 308.255 110.482L309.465 107.798C310.125 108.282 310.909 108.671 311.819 108.964C312.728 109.257 313.637 109.404 314.547 109.404C315.559 109.404 316.307 109.257 316.791 108.964C317.275 108.656 317.517 108.253 317.517 107.754C317.517 107.387 317.37 107.087 317.077 106.852C316.798 106.603 316.431 106.405 315.977 106.258C315.537 106.111 314.935 105.95 314.173 105.774C312.999 105.495 312.039 105.217 311.291 104.938C310.543 104.659 309.897 104.212 309.355 103.596C308.827 102.98 308.563 102.159 308.563 101.132C308.563 100.237 308.805 99.4307 309.289 98.712C309.773 97.9787 310.499 97.3993 311.467 96.974C312.449 96.5487 313.645 96.336 315.053 96.336C316.035 96.336 316.996 96.4533 317.935 96.688C318.873 96.9227 319.695 97.26 320.399 97.7L319.299 100.406C317.876 99.5993 316.453 99.196 315.031 99.196C314.033 99.196 313.293 99.3573 312.809 99.68C312.339 100.003 312.105 100.428 312.105 100.956C312.105 101.484 312.376 101.88 312.919 102.144C313.476 102.393 314.319 102.643 315.449 102.892C316.622 103.171 317.583 103.449 318.331 103.728C319.079 104.007 319.717 104.447 320.245 105.048C320.787 105.649 321.059 106.463 321.059 107.49C321.059 108.37 320.809 109.177 320.311 109.91C319.827 110.629 319.093 111.201 318.111 111.626C317.128 112.051 315.933 112.264 314.525 112.264ZM326.469 99.504H321.541V96.6H334.961V99.504H330.033V112H326.469V99.504ZM344.122 112.264C342.523 112.264 341.079 111.919 339.788 111.23C338.512 110.541 337.507 109.595 336.774 108.392C336.055 107.175 335.696 105.811 335.696 104.3C335.696 102.789 336.055 101.433 336.774 100.23C337.507 99.0127 338.512 98.0593 339.788 97.37C341.079 96.6807 342.523 96.336 344.122 96.336C345.721 96.336 347.158 96.6807 348.434 97.37C349.71 98.0593 350.715 99.0127 351.448 100.23C352.181 101.433 352.548 102.789 352.548 104.3C352.548 105.811 352.181 107.175 351.448 108.392C350.715 109.595 349.71 110.541 348.434 111.23C347.158 111.919 345.721 112.264 344.122 112.264ZM344.122 109.228C345.031 109.228 345.853 109.023 346.586 108.612C347.319 108.187 347.891 107.6 348.302 106.852C348.727 106.104 348.94 105.253 348.94 104.3C348.94 103.347 348.727 102.496 348.302 101.748C347.891 101 347.319 100.421 346.586 100.01C345.853 99.5847 345.031 99.372 344.122 99.372C343.213 99.372 342.391 99.5847 341.658 100.01C340.925 100.421 340.345 101 339.92 101.748C339.509 102.496 339.304 103.347 339.304 104.3C339.304 105.253 339.509 106.104 339.92 106.852C340.345 107.6 340.925 108.187 341.658 108.612C342.391 109.023 343.213 109.228 344.122 109.228Z" fill="#324A5E"/>
<path id="SZYBKO" d="M263.886 164.264C262.669 164.264 261.488 164.103 260.344 163.78C259.215 163.443 258.305 163.01 257.616 162.482L258.826 159.798C259.486 160.282 260.271 160.671 261.18 160.964C262.089 161.257 262.999 161.404 263.908 161.404C264.92 161.404 265.668 161.257 266.152 160.964C266.636 160.656 266.878 160.253 266.878 159.754C266.878 159.387 266.731 159.087 266.438 158.852C266.159 158.603 265.793 158.405 265.338 158.258C264.898 158.111 264.297 157.95 263.534 157.774C262.361 157.495 261.4 157.217 260.652 156.938C259.904 156.659 259.259 156.212 258.716 155.596C258.188 154.98 257.924 154.159 257.924 153.132C257.924 152.237 258.166 151.431 258.65 150.712C259.134 149.979 259.86 149.399 260.828 148.974C261.811 148.549 263.006 148.336 264.414 148.336C265.397 148.336 266.357 148.453 267.296 148.688C268.235 148.923 269.056 149.26 269.76 149.7L268.66 152.406C267.237 151.599 265.815 151.196 264.392 151.196C263.395 151.196 262.654 151.357 262.17 151.68C261.701 152.003 261.466 152.428 261.466 152.956C261.466 153.484 261.737 153.88 262.28 154.144C262.837 154.393 263.681 154.643 264.81 154.892C265.983 155.171 266.944 155.449 267.692 155.728C268.44 156.007 269.078 156.447 269.606 157.048C270.149 157.649 270.42 158.463 270.42 159.49C270.42 160.37 270.171 161.177 269.672 161.91C269.188 162.629 268.455 163.201 267.472 163.626C266.489 164.051 265.294 164.264 263.886 164.264ZM285.329 161.096V164H271.865V161.69L280.313 151.504H272.041V148.6H284.999V150.91L276.573 161.096H285.329ZM295.007 158.544V164H291.443V158.5L285.481 148.6H289.265L293.379 155.442L297.493 148.6H300.991L295.007 158.544ZM313.64 155.992C314.52 156.271 315.209 156.74 315.708 157.4C316.207 158.045 316.456 158.845 316.456 159.798C316.456 161.147 315.928 162.189 314.872 162.922C313.831 163.641 312.305 164 310.296 164H302.332V148.6H309.856C311.733 148.6 313.171 148.959 314.168 149.678C315.18 150.397 315.686 151.372 315.686 152.604C315.686 153.352 315.503 154.019 315.136 154.606C314.784 155.193 314.285 155.655 313.64 155.992ZM305.874 151.284V154.914H309.416C310.296 154.914 310.963 154.76 311.418 154.452C311.873 154.144 312.1 153.689 312.1 153.088C312.1 152.487 311.873 152.039 311.418 151.746C310.963 151.438 310.296 151.284 309.416 151.284H305.874ZM310.032 161.316C310.971 161.316 311.675 161.162 312.144 160.854C312.628 160.546 312.87 160.069 312.87 159.424C312.87 158.148 311.924 157.51 310.032 157.51H305.874V161.316H310.032ZM324.764 157.95L322.696 160.106V164H319.154V148.6H322.696V155.794L329.516 148.6H333.476L327.096 155.464L333.85 164H329.692L324.764 157.95ZM342.339 164.264C340.74 164.264 339.295 163.919 338.005 163.23C336.729 162.541 335.724 161.595 334.991 160.392C334.272 159.175 333.913 157.811 333.913 156.3C333.913 154.789 334.272 153.433 334.991 152.23C335.724 151.013 336.729 150.059 338.005 149.37C339.295 148.681 340.74 148.336 342.339 148.336C343.937 148.336 345.375 148.681 346.651 149.37C347.927 150.059 348.931 151.013 349.665 152.23C350.398 153.433 350.765 154.789 350.765 156.3C350.765 157.811 350.398 159.175 349.665 160.392C348.931 161.595 347.927 162.541 346.651 163.23C345.375 163.919 343.937 164.264 342.339 164.264ZM342.339 161.228C343.248 161.228 344.069 161.023 344.803 160.612C345.536 160.187 346.108 159.6 346.519 158.852C346.944 158.104 347.157 157.253 347.157 156.3C347.157 155.347 346.944 154.496 346.519 153.748C346.108 153 345.536 152.421 344.803 152.01C344.069 151.585 343.248 151.372 342.339 151.372C341.429 151.372 340.608 151.585 339.875 152.01C339.141 152.421 338.562 153 338.137 153.748C337.726 154.496 337.521 155.347 337.521 156.3C337.521 157.253 337.726 158.104 338.137 158.852C338.562 159.6 339.141 160.187 339.875 160.612C340.608 161.023 341.429 161.228 342.339 161.228Z" fill="#324A5E"/>
</g>
</g>
</svg>
