<svg width="580" height="300" viewBox="0 0 580 300" fill="none" xmlns="http://www.w3.org/2000/svg">
<g id="Quick and easy">
<g id="Group 13">
<g id="XMLID_75_">
<path id="XMLID_76_" d="M444.382 26.963V204.042H136.694V26.963C136.694 19.87 142.564 14 149.657 14H431.664C438.512 14 444.382 19.87 444.382 26.963Z" fill="#324A5E"/>
</g>
<g id="XMLID_73_">
<path id="XMLID_74_" d="M431.536 190.952L431.536 26.8356L149.53 26.8356L149.53 190.952L431.536 190.952Z" fill="#E5E5E5"/>
</g>
<g id="XMLID_71_">
<path id="XMLID_72_" d="M444.382 204.042V222.142C444.382 229.235 438.512 235.105 431.419 235.105H149.657C142.564 235.105 136.694 229.235 136.694 222.142V204.042H444.382Z" fill="#E5E5E5"/>
</g>
<g id="XMLID_69_">
<path id="XMLID_70_" d="M336.275 269.591H244.801L258.742 235.105H322.334L336.275 269.591Z" fill="#E5E5E5"/>
</g>
<g id="XMLID_67_" opacity="0.5">
<path id="XMLID_68_" opacity="0.5" d="M251.649 235.105L329.427 269.591L315.241 235.105H251.649Z" fill="#ADB3BA"/>
</g>
<g id="XMLID_65_">
<path id="XMLID_66_" d="M362.691 276.929C362.691 281.331 359.022 285 354.619 285H226.457C222.054 285 218.385 281.331 218.385 276.929C218.385 272.526 222.054 268.857 226.457 268.857H354.619C359.022 268.857 362.691 272.526 362.691 276.929Z" fill="#324A5E"/>
</g>
<g id="Group 12">
<g id="XMLID_63_">
<path id="XMLID_64_" d="M391.797 49.8275V191.12H189.28V49.8275C189.28 46.499 193.438 43.6698 198.33 43.6698H382.747C387.639 43.8363 391.797 46.499 391.797 49.8275Z" fill="white"/>
</g>
<path id="XMLID_62_" d="M390.736 68.1813V49.3092C390.736 44.4074 386.849 40.2408 381.747 40.2408H198.554C193.695 40.2408 189.564 44.1623 189.564 49.3092V68.1813H390.736Z" fill="#EE7D00"/>
<g id="XMLID_57_">
<path id="XMLID_61_" d="M212.271 54.6761C212.271 57.3666 210.069 59.5678 207.379 59.5678C204.689 59.5678 202.487 57.3666 202.487 54.6761C202.487 51.9857 204.689 49.7844 207.379 49.7844C210.069 49.7844 212.271 51.9857 212.271 54.6761Z" fill="white"/>
<path id="XMLID_60_" d="M226.946 54.6761C226.946 57.3666 224.744 59.5678 222.054 59.5678C219.364 59.5678 217.162 57.3666 217.162 54.6761C217.162 51.9857 219.364 49.7844 222.054 49.7844C224.744 49.7844 226.946 51.9857 226.946 54.6761Z" fill="white"/>
<path id="XMLID_59_" d="M241.376 54.6761C241.376 57.3666 239.175 59.5678 236.484 59.5678C233.794 59.5678 231.593 57.3666 231.593 54.6761C231.593 51.9857 233.794 49.7844 236.484 49.7844C239.175 49.7844 241.376 51.9857 241.376 54.6761Z" fill="white"/>
<path id="XMLID_58_" d="M378.588 54.6761C378.588 56.8774 376.876 58.5895 374.675 58.5895H260.699C258.497 58.5895 256.785 56.8774 256.785 54.6761C256.785 52.4749 258.497 50.7628 260.699 50.7628H374.675C376.876 51.0073 378.588 52.7194 378.588 54.6761Z" fill="white"/>
</g>
<g id="XMLID_42_">
<g id="XMLID_52_">
<g id="XMLID_53_">
<path id="XMLID_54_" d="M239.664 122.14H210.559C209.336 122.14 208.602 121.161 208.602 120.183V91.0773C208.602 89.8543 209.58 89.1206 210.559 89.1206H239.664C240.887 89.1206 241.621 90.0989 241.621 91.0773V120.183C241.621 121.161 240.887 122.14 239.664 122.14ZM212.76 117.982H237.708V93.034H212.76V117.982Z" fill="#EE7D00"/>
</g>
</g>
<g id="XMLID_50_">
<path id="XMLID_51_" d="M254.095 88.6314L232.082 111.867C231.349 112.845 229.881 112.845 228.903 111.867L220.342 102.084C219.853 101.35 219.853 100.372 220.587 99.8823C221.076 99.3932 222.054 99.3932 222.544 99.8823L230.615 106.975L252.138 86.4302C252.872 85.941 253.85 85.941 254.34 86.4302C254.584 87.1639 254.584 88.1423 254.095 88.6314Z" fill="#EE7D00"/>
</g>
</g>
<g id="XMLID_27_">
<g id="XMLID_37_">
<g id="XMLID_38_">
<path id="XMLID_39_" d="M239.664 173.747H210.559C209.336 173.747 208.602 172.769 208.602 171.79V142.685C208.602 141.462 209.58 140.728 210.559 140.728H239.664C240.887 140.728 241.621 141.706 241.621 142.685V171.79C241.621 172.769 240.887 173.747 239.664 173.747ZM212.76 169.834H237.708V144.641H212.76V169.834Z" fill="#EE7D00"/>
</g>
</g>
<g id="XMLID_35_">
<path id="XMLID_36_" d="M254.095 140.483L232.082 163.719C231.348 164.697 229.881 164.697 228.902 163.719L228.658 163.474L220.097 153.691C219.608 152.957 219.608 151.979 220.342 151.49C220.831 151.001 221.809 151.001 222.299 151.49L230.37 158.583L251.893 138.038C252.627 137.548 253.605 137.548 254.095 138.038C254.584 138.771 254.584 139.75 254.095 140.483Z" fill="#EE7D00"/>
</g>
</g>
</g>
<path id="QUICK" d="M275.48 113.65C274.981 114.266 274.373 114.735 273.654 115.058C272.95 115.381 272.173 115.542 271.322 115.542C270.178 115.542 269.144 115.293 268.22 114.794C267.296 114.31 266.24 113.445 265.052 112.198C263.659 112.022 262.412 111.575 261.312 110.856C260.227 110.137 259.376 109.213 258.76 108.084C258.159 106.94 257.858 105.679 257.858 104.3C257.858 102.789 258.217 101.433 258.936 100.23C259.669 99.0127 260.674 98.0593 261.95 97.37C263.241 96.6807 264.685 96.336 266.284 96.336C267.883 96.336 269.32 96.6807 270.596 97.37C271.872 98.0593 272.877 99.0127 273.61 100.23C274.343 101.433 274.71 102.789 274.71 104.3C274.71 106.089 274.204 107.659 273.192 109.008C272.195 110.357 270.867 111.296 269.21 111.824C269.577 112.205 269.929 112.477 270.266 112.638C270.618 112.814 270.992 112.902 271.388 112.902C272.341 112.902 273.177 112.521 273.896 111.758L275.48 113.65ZM261.466 104.3C261.466 105.253 261.671 106.104 262.082 106.852C262.507 107.6 263.087 108.187 263.82 108.612C264.553 109.023 265.375 109.228 266.284 109.228C267.193 109.228 268.015 109.023 268.748 108.612C269.481 108.187 270.053 107.6 270.464 106.852C270.889 106.104 271.102 105.253 271.102 104.3C271.102 103.347 270.889 102.496 270.464 101.748C270.053 101 269.481 100.421 268.748 100.01C268.015 99.5847 267.193 99.372 266.284 99.372C265.375 99.372 264.553 99.5847 263.82 100.01C263.087 100.421 262.507 101 262.082 101.748C261.671 102.496 261.466 103.347 261.466 104.3ZM284.231 112.264C282.031 112.264 280.315 111.655 279.083 110.438C277.865 109.221 277.257 107.483 277.257 105.224V96.6H280.821V105.092C280.821 107.849 281.965 109.228 284.253 109.228C285.367 109.228 286.218 108.898 286.805 108.238C287.391 107.563 287.684 106.515 287.684 105.092V96.6H291.205V105.224C291.205 107.483 290.589 109.221 289.357 110.438C288.139 111.655 286.431 112.264 284.231 112.264ZM294.726 96.6H298.29V112H294.726V96.6ZM309.315 112.264C307.746 112.264 306.323 111.927 305.047 111.252C303.786 110.563 302.788 109.617 302.055 108.414C301.336 107.197 300.977 105.825 300.977 104.3C300.977 102.775 301.336 101.411 302.055 100.208C302.788 98.9907 303.786 98.0447 305.047 97.37C306.323 96.6807 307.753 96.336 309.337 96.336C310.672 96.336 311.874 96.5707 312.945 97.04C314.03 97.5093 314.94 98.184 315.673 99.064L313.385 101.176C312.344 99.9733 311.053 99.372 309.513 99.372C308.56 99.372 307.709 99.5847 306.961 100.01C306.213 100.421 305.626 101 305.201 101.748C304.79 102.496 304.585 103.347 304.585 104.3C304.585 105.253 304.79 106.104 305.201 106.852C305.626 107.6 306.213 108.187 306.961 108.612C307.709 109.023 308.56 109.228 309.513 109.228C311.053 109.228 312.344 108.619 313.385 107.402L315.673 109.514C314.94 110.409 314.03 111.091 312.945 111.56C311.86 112.029 310.65 112.264 309.315 112.264ZM323.69 105.95L321.622 108.106V112H318.08V96.6H321.622V103.794L328.442 96.6H332.402L326.022 103.464L332.776 112H328.618L323.69 105.95Z" fill="#324A5E"/>
<path id="EASY" d="M270.75 161.14V164H258.826V148.6H270.464V151.46H262.368V154.804H269.518V157.576H262.368V161.14H270.75ZM283.728 160.7H276.578L275.214 164H271.562L278.426 148.6H281.946L288.832 164H285.092L283.728 160.7ZM282.606 157.994L280.164 152.098L277.722 157.994H282.606ZM295.49 164.264C294.272 164.264 293.092 164.103 291.948 163.78C290.818 163.443 289.909 163.01 289.22 162.482L290.43 159.798C291.09 160.282 291.874 160.671 292.784 160.964C293.693 161.257 294.602 161.404 295.512 161.404C296.524 161.404 297.272 161.257 297.756 160.964C298.24 160.656 298.482 160.253 298.482 159.754C298.482 159.387 298.335 159.087 298.042 158.852C297.763 158.603 297.396 158.405 296.942 158.258C296.502 158.111 295.9 157.95 295.138 157.774C293.964 157.495 293.004 157.217 292.256 156.938C291.508 156.659 290.862 156.212 290.32 155.596C289.792 154.98 289.528 154.159 289.528 153.132C289.528 152.237 289.77 151.431 290.254 150.712C290.738 149.979 291.464 149.399 292.432 148.974C293.414 148.549 294.61 148.336 296.018 148.336C297 148.336 297.961 148.453 298.9 148.688C299.838 148.923 300.66 149.26 301.364 149.7L300.264 152.406C298.841 151.599 297.418 151.196 295.996 151.196C294.998 151.196 294.258 151.357 293.774 151.68C293.304 152.003 293.07 152.428 293.07 152.956C293.07 153.484 293.341 153.88 293.884 154.144C294.441 154.393 295.284 154.643 296.414 154.892C297.587 155.171 298.548 155.449 299.296 155.728C300.044 156.007 300.682 156.447 301.21 157.048C301.752 157.649 302.024 158.463 302.024 159.49C302.024 160.37 301.774 161.177 301.276 161.91C300.792 162.629 300.058 163.201 299.076 163.626C298.093 164.051 296.898 164.264 295.49 164.264ZM311.529 158.544V164H307.965V158.5L302.003 148.6H305.787L309.901 155.442L314.015 148.6H317.513L311.529 158.544Z" fill="#324A5E"/>
</g>
</g>
</svg>
