<svg width="288" height="56" viewBox="0 0 288 56" fill="none" xmlns="http://www.w3.org/2000/svg">
<g clip-path="url(#clip0)">
<path d="M0.1 24.6V20.8C3.8 21.2 10 21.6 12.1 21.6H12.7C17.2 21.6 19 20.7 19 18.8C19 13.8 0 19.4 0 9.2C0 2 8.2 1.7 13.9 1.7C16.3 1.7 22 2 25 2.4V6.2C19.9 5.7 17.5 5.6 15 5.6H14.4C9 5.6 7.9 6.9 7.9 8.3C7.9 13.1 26.8 7.7 26.8 17.7C26.8 24.2 19.1 25.3 13.8 25.3C9.6 25.3 5.6 25.1 0.1 24.6ZM37.6 13.9V15.1H48.2V13.9C48.2 11.7 47.3 10.1 42.9 10.1C38.5 10.1 37.6 11.7 37.6 13.9ZM55.2 18.1H37.6V18.6C37.6 22.3 41.1 22.4 44.6 22.4C48.2 22.4 52 22 53.3 21.8V25C49.9 25.4 47.2 25.6 44.6 25.6C32 25.6 30.3 21.6 30.3 17.2V15.4C30.3 12 32.2 7.3 42.8 7.3C53.7 7.3 55.2 11.3 55.2 15.2V15.5V18.1ZM91.6 25.1V15.1C91.6 12.5 91.2 11.2 88.2 11.2C86.8 11.2 83.8 12 82.4 12.4C82.5 12.9 82.5 13.4 82.5 13.9V25H75.4V15C75.4 12.4 75 11.1 72 11.1C71 11.1 69.4 11.4 66.3 12.4V25H59.3V7.8H65.8V9.6C66.7 9.2 72.3 7.5 75.7 7.5C78.3 7.5 80.2 8.2 81.3 9.8C83.1 9.1 88.7 7.5 91.8 7.5C96.1 7.5 98.5 9.6 98.5 14V25.1H91.6ZM136.3 25.1V15.1C136.3 12.5 135.9 11.2 132.9 11.2C131.5 11.2 128.5 12 127.1 12.4C127.2 12.9 127.2 13.4 127.2 13.9V25H120.1V15C120.1 12.4 119.7 11.1 116.7 11.1C115.7 11.1 114.1 11.4 111 12.4V25H104V7.8H110.5V9.6C111.4 9.2 117 7.5 120.4 7.5C123 7.5 124.9 8.2 126 9.8C127.8 9.1 133.4 7.5 136.5 7.5C140.8 7.5 143.2 9.6 143.2 14V25.1H136.3ZM154.9 13.9V15.1H165.5V13.9C165.5 11.7 164.6 10.1 160.2 10.1C155.8 10.1 154.9 11.7 154.9 13.9ZM172.5 18.1H155V18.6C155 22.3 158.5 22.4 162 22.4C165.6 22.4 169.4 22 170.7 21.8V25C167.3 25.4 164.7 25.6 162 25.6C149.4 25.6 147.7 21.6 147.7 17.2V15.4C147.7 12 149.6 7.3 160.2 7.3C171.1 7.3 172.6 11.3 172.6 15.2V15.5L172.5 18.1ZM176.7 0H183.7V25.1H176.7V0ZM201.1 11.6C199.3 11.6 197.6 12.2 196.5 13L196.2 13.2V25.1H189.1V7.8H195.8V10.3C197 9.1 197.9 8.3 199.1 7.9C200.1 7.5 201.5 7.5 202.7 7.5C203.4 7.5 203.9 7.5 204.1 7.5V11.6H201.1ZM219.3 10.5C213.9 10.5 213.4 12.4 213.4 16.5C213.4 20.5 213.9 22.5 219.3 22.5C224.7 22.5 225.2 20.6 225.2 16.5C225.1 12.4 224.6 10.5 219.3 10.5ZM232.6 16.9C232.6 20.3 232.3 25.6 219.3 25.6C206.3 25.6 206 20.3 206 16.9V15.9C206 12.5 206.3 7.2 219.3 7.2C232.3 7.2 232.6 12.5 232.6 15.9V16.9ZM250.7 10.8C244.2 10.8 243.5 12.8 243.5 16V17.4C243.5 21 245.7 22 251.1 22C253.4 22 256.6 21.6 258.2 21.5V24.8C257.9 24.8 252.7 25.5 249.1 25.5C239.6 25.5 236.1 22.4 236.1 17.6V15.4C236.1 8.9 242.3 7.4 248.3 7.4C253.1 7.4 257.9 8.2 258.3 8.2V11.4C257.8 11.3 253.7 10.8 250.7 10.8ZM278 25.1L269.3 16.6H268.5V25.1H261.3V0H268.5V14.9H269.2L278.6 7.8H286.7L276 15.1L287.1 25H278V25.1Z" fill="#00A65D"/>
<path d="M87 50.9C85.1 50.9 83.7 50.5 82.4 49.3L83.5 48.2C84.4 49.1 85.6 49.5 86.9 49.5C88.7 49.5 89.9 48.8 89.9 47.5C89.9 46.5 89.3 46 88.1 45.9L86.3 45.7C84.1 45.5 83 44.6 83 42.7C83 40.7 84.7 39.5 87.1 39.5C88.7 39.5 90.1 39.9 91.1 40.7L90 41.8C89.2 41.2 88.2 40.9 87 40.9C85.4 40.9 84.5 41.6 84.5 42.7C84.5 43.6 85 44.2 86.4 44.3L88.2 44.5C90.1 44.7 91.5 45.4 91.5 47.5C91.5 49.7 89.6 50.9 87 50.9ZM97.5 50.8C95.6 50.8 94.7 49.5 94.7 47.8V41H93.3V39.8H94.7V36.3H96.3V39.8H98.7V41H96.3V47.8C96.3 48.8 96.8 49.4 97.8 49.4H98.7V50.8H97.5ZM108.3 42.6C107.9 41.6 106.9 40.9 105.7 40.9C104.5 40.9 103.5 41.6 103.1 42.6C102.9 43.2 102.8 43.5 102.8 44.4H108.7C108.5 43.6 108.5 43.2 108.3 42.6ZM102.7 45.7C102.7 48.1 103.8 49.5 106 49.5C107.3 49.5 108 49.1 108.9 48.2L110 49.2C108.9 50.3 107.8 50.9 105.9 50.9C103 50.9 101.1 49.1 101.1 45.2C101.1 41.6 102.8 39.5 105.6 39.5C108.5 39.5 110.2 41.6 110.2 44.9V45.6H102.7V45.7ZM113.7 39.7H115.3V50.8H113.7V39.7ZM126.5 50.8V44C126.5 42 125.4 41 123.8 41C122.1 41 121.1 42 121.1 44V50.8H119.5V39.7H121.1V40.9C121.9 40 123 39.5 124.2 39.5C125.4 39.5 126.4 39.9 127 40.5C127.8 41.3 128.1 42.3 128.1 43.6V50.7H126.5V50.8ZM136.4 45.7V49.7H135.1V45.7H131.1V44.4H135.1V40.5H136.4V44.4H140.3V45.7H136.4ZM147.6 41C145.2 41 144.8 43.1 144.8 45.2C144.8 47.4 145.2 49.4 147.6 49.4C150 49.4 150.4 47.3 150.4 45.2C150.4 43.1 150 41 147.6 41ZM150.4 50.8V49.5C149.5 50.7 148.5 51 147.2 51C146.1 51 145.1 50.6 144.5 50C143.4 48.9 143.1 47 143.1 45.3C143.1 43.6 143.3 41.7 144.5 40.6C145.1 40 146.1 39.6 147.2 39.6C148.4 39.6 149.4 39.9 150.3 41V34.8H151.9V50.8H150.4V50.8ZM162.6 42.6C162.2 41.6 161.2 40.9 160 40.9C158.8 40.9 157.8 41.6 157.4 42.6C157.2 43.2 157.1 43.5 157.1 44.4H163C162.9 43.6 162.8 43.2 162.6 42.6ZM157.1 45.7C157.1 48.1 158.2 49.5 160.4 49.5C161.7 49.5 162.4 49.1 163.3 48.2L164.4 49.2C163.3 50.3 162.2 50.9 160.3 50.9C157.4 50.9 155.5 49.1 155.5 45.2C155.5 41.6 157.2 39.5 160 39.5C162.9 39.5 164.6 41.6 164.6 44.9V45.6H157.1V45.7ZM171.5 50.9C169.6 50.9 168.2 50.5 166.9 49.3L168 48.2C168.9 49.1 170.1 49.5 171.4 49.5C173.2 49.5 174.4 48.8 174.4 47.5C174.4 46.5 173.8 46 172.6 45.9L170.8 45.7C168.6 45.5 167.5 44.6 167.5 42.7C167.5 40.7 169.2 39.5 171.6 39.5C173.2 39.5 174.6 39.9 175.6 40.7L174.5 41.8C173.7 41.2 172.7 40.9 171.5 40.9C169.9 40.9 169 41.6 169 42.7C169 43.6 169.5 44.2 170.9 44.3L172.7 44.5C174.6 44.7 176 45.4 176 47.5C176 49.7 174.2 50.9 171.5 50.9ZM179.2 39.7H180.8V50.8H179.2V39.7ZM188.7 41C186.3 41 185.9 43.1 185.9 45.1C185.9 47.2 186.3 49.2 188.7 49.2C191.1 49.2 191.4 47.1 191.4 45.1C191.4 43.1 191.1 41 188.7 41ZM188.4 55.9C186.7 55.9 185.8 55.5 184.6 54.4L185.7 53.4C186.5 54.1 187.1 54.5 188.4 54.5C190.5 54.5 191.4 53 191.4 51.1V49.4C190.5 50.5 189.5 50.8 188.3 50.8C187.2 50.8 186.2 50.4 185.6 49.8C184.5 48.7 184.2 47 184.2 45.2C184.2 43.4 184.4 41.7 185.6 40.6C186.2 40 187.2 39.6 188.3 39.6C189.5 39.6 190.5 39.9 191.4 41V39.7H193V51.1C193 53.9 191.3 55.9 188.4 55.9ZM204.2 50.8V44C204.2 42 203.1 41 201.5 41C199.8 41 198.7 42 198.7 44V50.8H197.1V39.7H198.7V40.9C199.5 40 200.6 39.5 201.8 39.5C203 39.5 204 39.9 204.6 40.5C205.4 41.3 205.7 42.3 205.7 43.6V50.7H204.2V50.8ZM115.5 35.5C115.5 36 115.1 36.5 114.5 36.5C114 36.5 113.5 36.1 113.5 35.5C113.5 35 113.9 34.5 114.5 34.5C115 34.5 115.5 34.9 115.5 35.5ZM180.9 35.5C180.9 36 180.5 36.5 179.9 36.5C179.4 36.5 178.9 36.1 178.9 35.5C178.9 35 179.3 34.5 179.9 34.5C180.5 34.5 180.9 35 180.9 35.5ZM216.3 37.5C216.3 38.7 215.8 39.8 215 40.6C214.2 41.4 213.1 41.9 211.9 41.9C210.7 41.9 209.6 41.4 208.8 40.6C208 39.8 207.5 38.7 207.5 37.5C207.5 36.3 208 35.2 208.8 34.4C209.6 33.6 210.7 33.1 211.9 33.1C213.1 33.1 214.2 33.6 215 34.4C215.9 35.2 216.3 36.3 216.3 37.5ZM214.6 40.1C215.3 39.4 215.7 38.5 215.7 37.5C215.7 36.5 215.3 35.6 214.6 34.9C213.9 34.2 213 33.8 212 33.8C211 33.8 210.1 34.2 209.4 34.9C208.7 35.6 208.3 36.5 208.3 37.5C208.3 38.5 208.7 39.4 209.4 40.1C210.1 40.8 211 41.2 212 41.2C213 41.2 213.9 40.7 214.6 40.1ZM212.3 35.4H211.1V37.1H212.3C212.9 37.1 213.2 36.8 213.2 36.2C213.2 35.7 212.8 35.4 212.3 35.4ZM213.3 40.1L212.1 37.8H211.1V40.1H210.3V34.6H212.4C213.4 34.6 214.1 35.3 214.1 36.2C214.1 37 213.6 37.5 213 37.7L214.3 40.1H213.3Z" fill="#6C6E70"/>
</g>
<defs>
<clipPath id="clip0">
<rect width="287.2" height="55.9" fill="white"/>
</clipPath>
</defs>
</svg>
