<svg width="278" height="42" viewBox="0 0 278 42" fill="none" xmlns="http://www.w3.org/2000/svg">
<path d="M0 20.6C0 32 9.2 41.2 20.6 41.2C32 41.2 41.2 32 41.2 20.6C41.2 9.2 32 0 20.6 0C9.2 0 0 9.2 0 20.6Z" fill="#B4363C"/>
<path d="M12.4 24.7L20.6 14.1V8.20001H12.4V16.5H4.09998V24.7H12.4Z" fill="white"/>
<path d="M27.3 20.6L37.1 8.20001H27.7L12.4 28V32.9H20.6V23.8L27.7 32.9H37.1L27.3 20.6Z" fill="white"/>
<path d="M52.8 30C52.7 29.9 52.6 29.6 52.8 29.4L55.6 26.2C55.7 26 56 26 56.1 26.2C57.7 27.5 59.9 28.7 62.6 28.7C65.2 28.7 66.6 27.5 66.6 25.8C66.6 24.3 65.7 23.4 62.8 23L61.5 22.8C56.5 22.1 53.7 19.7 53.7 15.4C53.7 10.9 57.1 7.79999 62.5 7.79999C65.8 7.79999 68.8 8.79999 70.9 10.4C71.1 10.5 71.2 10.7 71 10.9L68.8 14.2C68.7 14.4 68.5 14.4 68.3 14.3C66.4 13.1 64.6 12.4 62.6 12.4C60.4 12.4 59.3 13.5 59.3 15.1C59.3 16.5 60.3 17.4 63.1 17.8L64.4 18C69.5 18.7 72.2 21 72.2 25.5C72.2 30 68.9 33.3 62.5 33.3C58.4 33.3 54.7 31.8 52.8 30Z" fill="#56565A"/>
<path d="M93 32.9C92.7 32.9 92.6 32.8 92.5 32.5L88.2 17.1H88.1L83.8 32.5C83.7 32.7 83.6 32.9 83.3 32.9H79.7C79.5 32.9 79.3 32.8 79.3 32.5L72.9 8.49998C72.9 8.29998 72.9 8.09998 73.2 8.09998H77.9C78.2 8.09998 78.3 8.19998 78.3 8.49998L81.9 24H82L86.2 8.49998C86.3 8.29998 86.4 8.09998 86.7 8.09998H89.9C90.1 8.09998 90.3 8.19998 90.3 8.49998L94.7 24H94.8L98.2 8.49998C98.2 8.19998 98.4 8.09998 98.6 8.09998H103.2C103.5 8.09998 103.5 8.19998 103.5 8.49998L97.1 32.5C97.1 32.7 96.9 32.9 96.6 32.9H93Z" fill="#56565A"/>
<path d="M105.7 8.60001C105.7 8.40001 105.8 8.20001 106.1 8.20001H110.7C110.9 8.20001 111.1 8.30001 111.1 8.60001V32.6C111.1 32.8 111 33 110.7 33H106.1C105.9 33 105.7 32.9 105.7 32.6V8.60001Z" fill="#56565A"/>
<path d="M114.4 30C114.3 29.9 114.2 29.6 114.4 29.4L117.2 26.2C117.3 26 117.6 26 117.7 26.2C119.3 27.5 121.5 28.7 124.2 28.7C126.8 28.7 128.2 27.5 128.2 25.8C128.2 24.3 127.3 23.4 124.4 23L123.1 22.8C118.1 22.1 115.3 19.7 115.3 15.4C115.3 10.9 118.7 7.79999 124.1 7.79999C127.4 7.79999 130.4 8.79999 132.5 10.4C132.7 10.5 132.8 10.7 132.6 10.9L130.4 14.2C130.3 14.4 130.1 14.4 129.9 14.3C128 13.1 126.2 12.4 124.2 12.4C122 12.4 120.9 13.5 120.9 15.1C120.9 16.5 121.9 17.4 124.7 17.8L126 18C131.1 18.7 133.8 21 133.8 25.5C133.8 30 130.5 33.3 124.1 33.3C120.1 33.3 116.3 31.8 114.4 30Z" fill="#56565A"/>
<path d="M136.1 30C136 29.9 135.9 29.6 136.1 29.4L138.9 26.2C139 26 139.3 26 139.4 26.2C141 27.5 143.2 28.7 145.9 28.7C148.5 28.7 149.9 27.5 149.9 25.8C149.9 24.3 149 23.4 146.1 23L144.8 22.8C139.8 22.1 137 19.7 137 15.4C137 10.9 140.4 7.79999 145.8 7.79999C149.1 7.79999 152.1 8.79999 154.2 10.4C154.4 10.5 154.5 10.7 154.3 10.9L152.1 14.2C152 14.4 151.8 14.4 151.6 14.3C149.7 13.1 147.9 12.4 145.9 12.4C143.7 12.4 142.6 13.5 142.6 15.1C142.6 16.5 143.6 17.4 146.4 17.8L147.7 18C152.8 18.7 155.5 21 155.5 25.5C155.5 30 152.2 33.3 145.8 33.3C141.8 33.3 138 31.8 136.1 30Z" fill="#56565A"/>
<path d="M167.5 8.60001C167.5 8.40001 167.6 8.20001 167.9 8.20001H172.5C172.7 8.20001 172.9 8.30001 172.9 8.60001V19.3L181 8.60001C181.2 8.30001 181.3 8.30001 181.6 8.30001H186.9C187.1 8.30001 187.2 8.60001 187 8.80001L179.5 18.2L187.7 32.6C187.8 32.9 187.7 33 187.5 33H182.2C181.9 33 181.8 32.9 181.7 32.7L176 22.2L172.8 26.3V32.6C172.8 32.8 172.7 33 172.4 33H167.8C167.6 33 167.4 32.9 167.4 32.6V8.60001H167.5Z" fill="#56565A"/>
<path d="M203.4 15.9C203.4 14 202.1 12.8 200.1 12.8H195.7C195.6 12.8 195.5 12.9 195.5 13V18.7C195.5 18.8 195.6 18.9 195.7 18.9H200.1C202.1 19 203.4 17.8 203.4 15.9ZM203.8 32.9C203.5 32.9 203.4 32.8 203.3 32.5L199.1 23.5H195.8C195.7 23.5 195.6 23.6 195.6 23.7V32.5C195.6 32.7 195.5 32.9 195.2 32.9H190.6C190.4 32.9 190.2 32.8 190.2 32.5V8.49998C190.2 8.29998 190.3 8.09998 190.6 8.09998H200.4C205.4 8.09998 208.8 11.3 208.8 15.8C208.8 19 207.1 21.5 204.4 22.7L209.3 32.4C209.4 32.6 209.3 32.8 209 32.8H203.8V32.9Z" fill="#56565A"/>
<path d="M225.6 25.9C225.9 25 226 23.8 226 20.6C226 17.4 225.9 16.2 225.6 15.3C225.1 13.6 223.7 12.6 221.7 12.6C219.7 12.6 218.4 13.6 217.8 15.3C217.5 16.2 217.4 17.4 217.4 20.6C217.4 23.8 217.5 25 217.8 25.9C218.3 27.6 219.7 28.6 221.7 28.6C223.7 28.6 225 27.6 225.6 25.9ZM212.7 27.3C212.2 25.6 212 24.2 212 20.5C212 16.8 212.1 15.5 212.7 13.7C214 9.70001 217.4 7.70001 221.7 7.70001C226 7.70001 229.4 9.70001 230.7 13.7C231.2 15.4 231.4 16.8 231.4 20.5C231.4 24.2 231.3 25.5 230.7 27.3C229.4 31.3 226 33.3 221.7 33.3C217.3 33.3 213.9 31.3 212.7 27.3Z" fill="#56565A"/>
<path d="M235.3 8.60001C235.3 8.40001 235.4 8.20001 235.7 8.20001H240.1C240.4 8.20001 240.6 8.30001 240.7 8.60001L249.4 24.1H249.6V8.60001C249.6 8.40001 249.7 8.20001 250 8.20001H254.1C254.3 8.20001 254.5 8.30001 254.5 8.60001V32.6C254.5 32.8 254.4 33 254.1 33H249.8C249.5 33 249.3 32.9 249.2 32.6L240.4 17.1H240.2V32.6C240.2 32.8 240.1 33 239.8 33H235.7C235.5 33 235.3 32.9 235.3 32.6V8.60001V8.60001Z" fill="#56565A"/>
<path d="M271.8 25.9C272.1 25 272.2 23.8 272.2 20.6C272.2 17.4 272.1 16.2 271.8 15.3C271.3 13.6 269.9 12.6 267.9 12.6C265.9 12.6 264.6 13.6 264 15.3C263.7 16.2 263.6 17.4 263.6 20.6C263.6 23.8 263.7 25 264 25.9C264.5 27.6 265.9 28.6 267.9 28.6C270 28.6 271.3 27.6 271.8 25.9ZM258.9 27.3C258.4 25.6 258.2 24.2 258.2 20.5C258.2 16.8 258.3 15.5 258.9 13.7C260.2 9.70001 263.6 7.70001 267.9 7.70001C272.2 7.70001 275.6 9.70001 276.9 13.7C277.4 15.4 277.6 16.8 277.6 20.5C277.6 24.2 277.5 25.5 276.9 27.3C275.6 31.3 272.2 33.3 267.9 33.3C263.6 33.3 260.2 31.3 258.9 27.3Z" fill="#56565A"/>
</svg>
