<svg width="24" height="24" viewBox="0 0 24 24" fill="none" xmlns="http://www.w3.org/2000/svg">
<g clip-path="url(#clip0)">
<path d="M21.354 9.14612L12.355 0.147116C12.3088 0.100069 12.2537 0.0626978 12.193 0.0371864C12.1322 0.0116749 12.0669 -0.00146484 12.001 -0.00146484C11.9351 -0.00146484 11.8698 0.0116749 11.809 0.0371864C11.7483 0.0626978 11.6932 0.100069 11.647 0.147116L2.646 9.14612C2.55492 9.24042 2.50453 9.36672 2.50566 9.49782C2.5068 9.62892 2.55939 9.75432 2.65209 9.84703C2.7448 9.93973 2.8702 9.99231 3.0013 9.99345C3.1324 9.99459 3.2587 9.9442 3.353 9.85312L11.5 1.70712V23.5001C11.5 23.6327 11.5527 23.7599 11.6464 23.8537C11.7402 23.9474 11.8674 24.0001 12 24.0001C12.1326 24.0001 12.2598 23.9474 12.3536 23.8537C12.4473 23.7599 12.5 23.6327 12.5 23.5001V1.70712L20.646 9.85312C20.6924 9.8996 20.7475 9.93649 20.8082 9.96168C20.8689 9.98686 20.934 9.99985 20.9996 9.99989C21.0653 9.99994 21.1304 9.98705 21.1911 9.96195C21.2518 9.93685 21.307 9.90004 21.3535 9.85362C21.4 9.80719 21.4369 9.75207 21.4621 9.69139C21.4872 9.63071 21.5002 9.56567 21.5003 9.49997C21.5003 9.43427 21.4874 9.36921 21.4623 9.30849C21.4372 9.24778 21.4004 9.1926 21.354 9.14612Z" fill="#006295"/>
</g>
<defs>
<clipPath id="clip0">
<rect width="24" height="24" fill="white"/>
</clipPath>
</defs>
</svg>
