<svg width="24" height="24" viewBox="0 0 24 24" fill="none" xmlns="http://www.w3.org/2000/svg">
<g clip-path="url(#clip0)">
<path d="M2.646 14.8539L11.645 23.8529C11.6912 23.8999 11.7463 23.9373 11.807 23.9628C11.8678 23.9883 11.9331 24.0015 11.999 24.0015C12.0649 24.0015 12.1302 23.9883 12.191 23.9628C12.2517 23.9373 12.3068 23.8999 12.353 23.8529L21.354 14.8539C21.4451 14.7596 21.4955 14.6333 21.4943 14.5022C21.4932 14.3711 21.4406 14.2457 21.3479 14.153C21.2552 14.0603 21.1298 14.0077 20.9987 14.0065C20.8676 14.0054 20.7413 14.0558 20.647 14.1469L12.5 22.2929L12.5 0.499883C12.5 0.367275 12.4473 0.240097 12.3536 0.146329C12.2598 0.0525609 12.1326 -0.000117167 12 -0.000117178C11.8674 -0.00011719 11.7402 0.0525608 11.6464 0.146329C11.5527 0.240097 11.5 0.367275 11.5 0.499883L11.5 22.2929L3.354 14.1469C3.30758 14.1004 3.25245 14.0635 3.19177 14.0383C3.13109 14.0131 3.06605 14.0002 3.00035 14.0001C2.93465 14.0001 2.86959 14.013 2.80888 14.038C2.74816 14.0631 2.69299 14.1 2.6465 14.1464C2.60001 14.1928 2.56312 14.2479 2.53794 14.3086C2.51275 14.3693 2.49977 14.4343 2.49972 14.5C2.49967 14.5657 2.51257 14.6308 2.53767 14.6915C2.56277 14.7522 2.59958 14.8074 2.646 14.8539Z" fill="#EE7D00"/>
</g>
<defs>
<clipPath id="clip0">
<rect width="24" height="24" fill="white" transform="translate(24 24) rotate(-180)"/>
</clipPath>
</defs>
</svg>
