<svg width="580" height="300" viewBox="0 0 580 300" fill="none" xmlns="http://www.w3.org/2000/svg">
<g id="Utworzenie aukcji 10 sekund" clip-path="url(#clip0)">
<g id="Group 30">
<path id="XMLID 67" d="M294.521 157.174C294.521 157.174 279.417 210.352 331.021 243.076L318.12 255.977C317.963 256.134 266.674 209.565 294.521 157.174Z" fill="#EE7D00"/>
<path id="XMLID 65" d="M278.63 155.444C278.63 155.444 225.767 192.574 169.916 148.364L160.633 167.716C160.791 167.558 231.589 206.261 278.63 155.444Z" fill="#324A5E"/>
<path id="XMLID 63" d="M278.159 155.916C278.159 155.916 241.029 208.779 285.239 264.63L265.887 273.913C266.044 273.755 227.184 202.8 278.159 155.916Z" fill="#324A5E"/>
<path id="XMLID 60" d="M276.271 138.924C276.271 138.924 223.094 154.028 190.369 102.424L177.468 115.325C177.311 115.482 223.88 166.771 276.271 138.924Z" fill="#EE7D00"/>
<path id="XMLID 58" d="M334.167 191.787C330.706 193.989 326.773 195.405 322.839 195.877C328.346 187.224 328.503 175.739 322.682 166.771C316.703 157.646 306.32 153.241 296.251 154.5C298.296 151.196 301.285 148.206 304.747 146.004C317.333 137.823 334.324 141.599 342.505 154.185C350.687 166.771 346.911 183.763 334.167 191.787Z" fill="#FA890B"/>
<path id="XMLID 56" d="M242.287 99.9067C240.084 103.368 238.669 107.301 238.197 111.234C246.85 105.728 258.335 105.57 267.302 111.392C276.427 117.37 280.833 127.754 279.574 137.823C282.878 135.778 285.867 132.788 288.07 129.327C296.251 116.741 292.475 99.7493 279.889 91.5682C267.302 83.3871 250.311 87.163 242.287 99.9067Z" fill="#FA890B"/>
<path id="XMLID 53" d="M292.633 173.851L260.223 141.442L279.26 129.327L304.747 154.815L292.633 173.851Z" fill="#B8BDC1"/>
<path id="XMLID 51" d="M302.071 171.648C322.524 164.096 348.955 150.251 371.139 128.068C413.618 85.5892 415.506 18.5671 415.506 18.5671C415.506 18.5671 348.483 20.455 306.005 62.9338C283.821 85.1172 270.134 111.706 262.425 132.001L302.071 171.648Z" fill="#E5E5E5"/>
<path id="XMLID 49" d="M406.066 67.9684C414.877 40.9078 415.506 18.5671 415.506 18.5671C415.506 18.5671 393.165 19.1964 366.105 28.0068L406.066 67.9684Z" fill="#FA890B"/>
<path id="XMLID 47" d="M415.506 18.5677C415.506 18.5677 393.166 19.197 366.105 27.6928L386.243 47.8309L415.506 18.5677Z" fill="#EE7D00"/>
<path id="XMLID 45" d="M293.419 151.982C280.99 164.411 265.257 168.816 265.257 168.816C265.257 168.816 269.662 153.083 282.091 140.654C294.52 128.225 310.253 123.82 310.253 123.82C310.253 123.82 305.848 139.553 293.419 151.982Z" fill="#EE7D00"/>
<path id="XMLID 43" d="M310.253 123.82C309.466 123.978 294.205 128.54 282.091 140.654C269.977 152.769 265.414 168.03 265.257 168.816L310.253 123.82Z" fill="#FA890B"/>
<path id="XMLID 40" d="M367.206 94.2423C359.654 101.794 347.383 101.794 339.831 94.2423C332.279 86.6905 332.279 74.4189 339.831 66.8671C347.383 59.3153 359.654 59.3153 367.206 66.8671C374.915 74.2615 374.915 86.5332 367.206 94.2423Z" fill="#324A5E"/>
<path id="XMLID 38" d="M363.116 90.1519C357.767 95.5011 349.271 95.5011 343.922 90.1519C338.573 84.8027 338.573 76.307 343.922 70.9578C349.271 65.6086 357.767 65.6086 363.116 70.9578C368.622 76.1496 368.465 84.8027 363.116 90.1519Z" fill="#4D7597"/>
<path id="XMLID 35" d="M307.893 266.203C317.103 275.413 332.036 275.413 341.247 266.203C350.457 256.993 350.457 242.06 341.247 232.849C332.036 223.639 317.103 223.639 307.893 232.849C298.683 242.06 298.683 256.993 307.893 266.203Z" fill="#EE7D00"/>
<path id="XMLID 33" d="M257.863 283.195C267.073 292.405 282.006 292.405 291.216 283.195C300.427 273.984 300.427 259.051 291.216 249.841C282.006 240.63 267.073 240.63 257.863 249.841C248.652 259.051 248.652 273.984 257.863 283.195Z" fill="#324A5E"/>
<path id="XMLID 31" d="M148.677 178.099C157.887 187.309 172.82 187.309 182.03 178.099C191.241 168.888 191.241 153.955 182.03 144.745C172.82 135.534 157.887 135.534 148.677 144.745C139.466 153.955 139.466 168.888 148.677 178.099Z" fill="#324A5E"/>
<path id="XMLID 29" d="M167.241 125.551C176.451 134.761 191.384 134.761 200.595 125.551C209.805 116.341 209.805 101.408 200.595 92.1973C191.384 82.987 176.451 82.987 167.241 92.1974C158.031 101.408 158.031 116.341 167.241 125.551Z" fill="#EE7D00"/>
<path id="XMLID 22" d="M170.23 152.455C170.073 153.871 169.601 154.972 168.5 156.073C167.398 157.174 166.297 157.646 164.724 157.646C163.308 157.804 162.049 157.174 161.105 156.23C160.161 155.287 159.532 154.028 159.689 152.612C159.847 151.196 160.319 150.095 161.42 148.993C162.521 147.892 163.623 147.42 165.196 147.42C166.612 147.263 167.87 147.892 168.814 148.836C169.758 149.78 170.23 150.881 170.23 152.455ZM180.457 161.422L151.823 165.828L148.834 162.838L177.467 158.433L180.457 161.422ZM164.724 154.815C165.353 154.815 165.825 154.343 166.297 153.871C166.769 153.399 167.084 152.769 167.084 152.14C167.084 151.511 166.926 151.039 166.612 150.724C166.297 150.409 165.825 150.252 165.196 150.252C164.566 150.252 164.095 150.724 163.623 151.196C163.151 151.668 162.836 152.297 162.836 152.927C162.836 153.556 162.993 154.028 163.308 154.343C163.623 154.657 164.095 154.815 164.724 154.815ZM169.916 171.334C169.758 172.75 169.286 173.851 168.185 174.953C167.084 176.054 165.982 176.526 164.409 176.526C162.993 176.683 161.735 176.054 160.791 175.11C159.847 174.166 159.217 172.907 159.375 171.491C159.532 170.075 160.004 168.974 161.105 167.873C162.207 166.772 163.308 166.3 164.881 166.3C166.297 166.142 167.556 166.772 168.5 167.715C169.601 168.817 170.073 169.918 169.916 171.334ZM164.566 173.851C165.196 173.851 165.668 173.379 166.14 172.907C166.612 172.435 166.926 171.806 166.926 171.177C166.926 170.547 166.769 170.075 166.454 169.761C166.14 169.446 165.668 169.289 165.038 169.289C164.409 169.289 163.937 169.761 163.465 170.233C162.993 170.705 162.679 171.334 162.679 171.963C162.679 172.593 162.836 173.065 163.151 173.379C163.465 173.694 163.937 173.851 164.566 173.851Z" fill="white"/>
<path id="XMLID 15" d="M314.659 258.494L316.233 256.921C314.345 254.718 313.401 251.887 313.243 248.897L316.705 248.583C316.862 250.943 317.491 252.83 318.75 254.404L323.155 249.999C321.897 247.796 321.11 246.065 320.953 244.649C320.795 243.233 321.425 241.975 322.84 240.559C324.099 239.3 325.672 238.671 327.403 238.828C329.134 238.986 330.707 239.615 332.28 240.873L333.382 239.772L334.797 241.188L333.696 242.289C335.112 244.02 336.213 246.065 336.685 248.74L333.224 249.369C332.91 247.796 332.28 246.223 331.336 244.964L327.088 249.212C328.347 251.415 329.134 253.145 329.291 254.561C329.448 255.977 328.819 257.55 327.56 258.809C326.302 260.068 324.728 260.697 322.998 260.54C321.267 260.382 319.537 259.596 317.963 258.337L316.39 259.91L314.817 258.337L314.659 258.494ZM327.718 242.289C327.088 242.289 326.302 242.447 325.83 242.919C325.358 243.391 325.043 244.02 325.043 244.649C325.043 245.279 325.358 246.223 325.987 247.167L329.92 243.233C329.134 242.761 328.347 242.289 327.718 242.289ZM322.526 256.921C323.312 257.078 323.942 256.764 324.414 256.292C324.886 255.82 325.2 255.19 325.2 254.561C325.2 253.932 324.886 252.988 324.099 251.887L320.009 255.977C320.953 256.606 321.739 256.764 322.526 256.921Z" fill="white"/>
<path id="XMLID 10" d="M172.59 119.887C169.444 116.741 167.87 112.965 167.87 108.874C167.87 104.784 169.444 101.008 172.59 97.8612C175.737 94.7146 179.513 93.1413 183.918 93.1413C188.323 93.1413 192.099 94.7146 195.246 97.8612C198.392 101.008 199.966 104.784 199.966 109.189C199.966 113.594 198.392 117.37 195.088 120.674C193.043 122.719 191.155 123.978 189.11 124.45C187.065 124.922 185.491 124.607 184.233 123.348C183.289 122.405 182.974 121.461 182.974 120.202C183.131 119.101 183.761 117.842 184.705 116.583C181.243 117.842 178.411 117.527 176.052 115.167C174.478 113.594 173.692 111.549 173.692 109.032C173.692 106.514 174.793 104.154 176.681 102.266C178.726 100.221 180.929 99.2772 183.446 98.9625C185.806 98.8052 188.166 99.5918 190.054 101.48C190.84 102.266 191.627 103.368 191.784 104.469C192.099 105.728 192.099 106.672 191.942 107.773L193.83 105.885L196.504 108.56L186.75 118.314C185.491 119.573 185.334 120.674 186.435 121.775C187.065 122.405 188.009 122.405 189.267 122.09C190.526 121.775 191.942 120.989 193.358 119.573C196.347 116.583 197.92 113.122 198.235 109.346C198.55 105.57 197.291 102.109 194.459 99.2772C191.627 96.4452 188.323 95.0293 184.233 95.0293C180.142 95.0293 176.838 96.4452 174.006 99.2772C171.174 102.109 169.916 105.256 169.916 109.032C169.916 112.807 171.332 116.111 174.006 118.786C176.209 120.989 178.569 122.09 180.929 122.247L180.457 123.978C179.198 123.978 177.939 123.348 176.366 122.719C174.793 121.775 173.534 120.831 172.59 119.887ZM187.222 112.493C188.481 111.234 189.11 109.976 189.11 108.402C189.267 106.986 188.638 105.728 187.379 104.469C186.278 103.368 184.862 102.896 183.446 103.053C182.03 103.21 180.614 103.682 179.355 104.941C178.254 106.042 177.467 107.458 177.31 108.874C176.995 110.448 177.625 111.706 178.883 112.965C179.985 114.066 181.401 114.538 182.974 114.538C184.705 114.381 185.963 113.751 187.222 112.493Z" fill="white"/>
<path id="XMLID 7" d="M277.529 269.507C275.956 271.081 273.281 271.238 271.55 269.507C269.82 267.777 269.82 265.259 271.55 263.529C273.124 261.955 275.798 261.798 277.529 263.529C279.259 265.259 279.102 267.934 277.529 269.507Z" fill="white"/>
<path id="XMLID 3" d="M287.126 277.216L285.395 274.856C285.867 274.384 286.182 273.755 286.654 272.968L289.329 273.755C289.329 273.755 289.643 273.755 289.486 273.598L290.273 271.552L290.273 271.238L287.755 269.665C287.913 268.878 288.07 268.406 288.227 267.619L291.059 267.305L291.217 267.147V264.945L291.059 264.787L288.227 264.473C288.07 263.686 288.07 263.057 287.755 262.427L290.43 261.011C290.43 261.011 290.587 260.854 290.43 260.697L289.643 258.652C289.486 258.494 289.486 258.494 289.486 258.494L286.811 259.281C286.497 258.651 286.182 258.022 285.553 257.393L287.283 255.033C287.441 254.876 287.441 254.876 287.283 254.718L285.867 253.302C285.71 253.145 285.71 253.145 285.553 253.302L283.193 255.033C282.721 254.561 282.091 254.246 281.305 253.774L282.091 251.1C282.091 251.1 282.091 250.785 281.934 250.942L279.889 250.156L279.574 250.156L278.001 252.673C277.214 252.516 276.585 252.201 275.956 252.201L275.641 249.369L275.484 249.212L273.281 249.212L273.124 249.369L272.809 252.201C272.022 252.358 271.393 252.358 270.764 252.673L269.19 250.156C269.19 250.156 269.033 249.998 268.876 250.156L266.831 250.942L266.673 251.1L267.46 253.774C266.831 254.089 266.201 254.404 265.572 255.033L263.212 253.302C263.055 253.145 263.055 253.145 262.897 253.302L261.481 254.718C261.481 254.718 261.324 254.876 261.481 255.033L263.212 257.393C262.74 257.865 262.425 258.494 261.953 259.281L259.279 258.494C259.279 258.494 258.964 258.494 259.121 258.651L258.335 260.697L258.335 261.011L261.009 262.427C260.852 263.214 260.537 263.843 260.537 264.473L257.705 264.787L257.548 264.945L257.548 267.147L257.705 267.305L260.537 267.619C260.537 268.249 260.695 269.035 261.009 269.665L258.492 271.238C258.492 271.238 258.335 271.395 258.492 271.552L259.279 273.598L259.436 273.755L262.111 272.968C262.425 273.598 262.74 274.227 263.369 274.856L262.111 277.374C262.111 277.374 261.953 277.531 262.111 277.688L263.527 279.104C263.527 279.104 263.684 279.262 263.841 279.104L266.201 277.374C266.673 277.846 267.303 278.16 268.089 278.632L267.303 281.307C267.303 281.307 267.303 281.622 267.46 281.464L269.505 282.251L269.82 282.251L271.236 279.576C272.022 279.734 272.652 280.048 273.281 280.048L273.596 282.88L273.753 283.037L275.956 283.037L276.113 282.88L276.428 280.048C277.214 279.891 277.844 279.891 278.473 279.576L279.889 282.251C279.889 282.251 280.046 282.408 280.204 282.251L282.249 281.464L282.406 281.307L281.619 278.632C282.249 278.318 282.878 278.003 283.507 277.374L285.867 279.104C285.867 279.104 286.025 279.262 286.182 279.104L287.126 277.216C287.126 277.531 287.126 277.531 287.126 277.216ZM268.718 272.339C265.572 269.193 265.572 263.843 268.718 260.697C271.865 257.55 277.214 257.55 280.361 260.697C283.507 263.843 283.507 269.193 280.361 272.339C277.057 275.643 272.022 275.643 268.718 272.339Z" fill="white"/>
</g>
</g>
<defs>
<clipPath id="clip0">
<rect width="580" height="300" fill="white"/>
</clipPath>
</defs>
</svg>
